<?xml version="1.0" encoding="UTF-8" standalone="no"?>
<svg
   id="Capa_1"
   data-name="Capa 1"
   viewBox="0 0 792 612"
   version="1.1"
   sodipodi:docname="Mesa de trabajo 2.svg"
   inkscape:export-filename="Mesa de trabajo 2.svg"
   inkscape:export-xdpi="96"
   inkscape:export-ydpi="96"
   inkscape:version="1.3.2 (091e20e, 2023-11-25)"
   xmlns:inkscape="http://www.inkscape.org/namespaces/inkscape"
   xmlns:sodipodi="http://sodipodi.sourceforge.net/DTD/sodipodi-0.dtd"
   xmlns="http://www.w3.org/2000/svg"
   xmlns:svg="http://www.w3.org/2000/svg">
  <sodipodi:namedview
     id="namedview7"
     pagecolor="#ffffff"
     bordercolor="#111111"
     borderopacity="1"
     inkscape:showpageshadow="0"
     inkscape:pageopacity="0"
     inkscape:pagecheckerboard="1"
     inkscape:deskcolor="#d1d1d1"
     inkscape:zoom="0.38562092"
     inkscape:cx="395.4661"
     inkscape:cy="306"
     inkscape:window-width="1312"
     inkscape:window-height="449"
     inkscape:window-x="0"
     inkscape:window-y="34"
     inkscape:window-maximized="0"
     inkscape:current-layer="Capa_1" />
  <defs
     id="defs1">
    <style
       id="style1">
      .cls-1 {
        stroke: #070405;
        stroke-miterlimit: 10;
        stroke-width: 1.41px;
      }

      .cls-1, .cls-2 {
        fill: #1d1d1b;
      }

      .cls-3 {
        fill: #99c553;
      }
    </style>
  </defs>
  <rect
     class="cls-3"
     x="143.5"
     y="71.2"
     width="476.74"
     height="422.21"
     rx="83.38"
     ry="83.38"
     id="rect6" />
  <path
     class="cls-1"
     d="M275.4,148.96s50.28-17.42,112.07-19.39c61.79-1.97,125.21,12.49,125.54,57.51.33,45.02-65.73,70.66-103.52,90.38-37.79,19.72-78.22,51.6-70.33,75.26,7.89,23.66,49.3,27.93,77.23,2.3,27.93-25.63,54.56-63.76,61.46-77.56,6.9-13.8,11.17-26.54,11.17-26.54h21.36l-.34,184.3h-89.61l74.17-145.27h-11.17s-31.55,66.72-61.13,96.62c-29.58,29.91-65.4,48.97-98.59,48.64-33.19-.33-73.95-24.75-72.96-65.12.99-40.37,35.82-86.38,103.52-111.03,67.7-24.65,138.69-38.45,139.35-67.04.66-28.59-78.22-19.72-114.04-9.2-37.03,10.87-103.2,51.27-103.2,51.27l-.99-85.12Z"
     id="path7" />
</svg>
