<?xml version="1.0" encoding="iso-8859-1"?>
<!-- Uploaded to: SVG Repo, www.svgrepo.com, Generator: SVG Repo Mixer Tools -->
<svg height="800px" width="800px" version="1.1" id="Layer_1" xmlns="http://www.w3.org/2000/svg" xmlns:xlink="http://www.w3.org/1999/xlink" 
	 viewBox="0 0 512 512" xml:space="preserve">
<g>
	<path style="fill:#EDEBDA;" d="M256,459.034l-7.194-8.986c-18.158-22.705-43.741-29.449-72.254-35.151H35.31V0h141.241
		C210.679,0,256,18.838,256,52.966V459.034z"/>
	<path style="fill:#CEC9AE;" d="M256,459.034l7.194-8.986c18.158-22.705,43.741-29.449,72.254-35.151H476.69V0H317.793
		C283.666,0,256,27.666,256,61.793V459.034z"/>
	<g>
		<path style="fill:#ECBA16;" d="M256.703,52.966h-0.706v8.828C255.996,58.792,256.288,55.852,256.703,52.966"/>
		<path style="fill:#ECBA16;" d="M0,26.483v432.552h176.552c28.504,5.703,54.095,12.447,72.254,35.151l7.194,8.986l7.194-8.986
			c18.158-22.705,43.75-29.449,72.254-35.151H512V26.483h-35.31v388.414H335.448c-28.504,5.703-54.095,12.447-72.254,35.151
			L256,459.034l-7.194-8.986c-18.158-22.705-43.75-29.449-72.254-35.151H35.31V26.483H0z"/>
	</g>
	<path style="fill:#ED8A19;" d="M256,512c-4.873,0-8.828-3.955-8.828-8.828v-44.138c0-4.873,3.955-8.828,8.828-8.828
		s8.828,3.955,8.828,8.828v44.138C264.828,508.045,260.873,512,256,512"/>
	<g>
		<path style="fill:#CEC9AE;" d="M123.586,88.276h-35.31c-4.873,0-8.828-3.955-8.828-8.828s3.955-8.828,8.828-8.828h35.31
			c4.873,0,8.828,3.955,8.828,8.828S128.459,88.276,123.586,88.276"/>
		<path style="fill:#CEC9AE;" d="M211.862,88.276h-52.966c-4.873,0-8.828-3.955-8.828-8.828s3.955-8.828,8.828-8.828h52.966
			c4.873,0,8.828,3.955,8.828,8.828S216.735,88.276,211.862,88.276"/>
		<path style="fill:#CEC9AE;" d="M211.862,176.552h-52.966c-4.873,0-8.828-3.955-8.828-8.828s3.955-8.828,8.828-8.828h52.966
			c4.873,0,8.828,3.955,8.828,8.828S216.735,176.552,211.862,176.552"/>
		<path style="fill:#CEC9AE;" d="M158.897,132.414H88.276c-4.873,0-8.828-3.955-8.828-8.828s3.955-8.828,8.828-8.828h70.621
			c4.873,0,8.828,3.955,8.828,8.828S163.769,132.414,158.897,132.414"/>
		<path style="fill:#CEC9AE;" d="M123.586,176.552h-35.31c-4.873,0-8.828-3.955-8.828-8.828s3.955-8.828,8.828-8.828h35.31
			c4.873,0,8.828,3.955,8.828,8.828S128.459,176.552,123.586,176.552"/>
		<path style="fill:#CEC9AE;" d="M211.862,220.69H88.276c-4.873,0-8.828-3.955-8.828-8.828c0-4.873,3.955-8.828,8.828-8.828h123.586
			c4.873,0,8.828,3.955,8.828,8.828C220.69,216.735,216.735,220.69,211.862,220.69"/>
		<path style="fill:#CEC9AE;" d="M158.897,344.276H88.276c-4.873,0-8.828-3.955-8.828-8.828c0-4.873,3.955-8.828,8.828-8.828h70.621
			c4.873,0,8.828,3.955,8.828,8.828C167.724,340.321,163.769,344.276,158.897,344.276"/>
		<path style="fill:#CEC9AE;" d="M158.897,300.138H88.276c-4.873,0-8.828-3.955-8.828-8.828c0-4.873,3.955-8.828,8.828-8.828h70.621
			c4.873,0,8.828,3.955,8.828,8.828C167.724,296.183,163.769,300.138,158.897,300.138"/>
	</g>
	<path style="fill:#DD342E;" d="M423.724,88.276l-35.31-44.138l-35.31,44.138V0h70.621V88.276z"/>
	<g>
		<path style="fill:#CEC9AE;" d="M211.862,132.414h-17.655c-4.873,0-8.828-3.955-8.828-8.828s3.955-8.828,8.828-8.828h17.655
			c4.873,0,8.828,3.955,8.828,8.828S216.735,132.414,211.862,132.414"/>
		<path style="fill:#CEC9AE;" d="M211.862,300.138h-17.655c-4.873,0-8.828-3.955-8.828-8.828c0-4.873,3.955-8.828,8.828-8.828
			h17.655c4.873,0,8.828,3.955,8.828,8.828C220.69,296.183,216.735,300.138,211.862,300.138"/>
		<path style="fill:#CEC9AE;" d="M123.586,256h-35.31c-4.873,0-8.828-3.955-8.828-8.828s3.955-8.828,8.828-8.828h35.31
			c4.873,0,8.828,3.955,8.828,8.828S128.459,256,123.586,256"/>
		<path style="fill:#CEC9AE;" d="M211.862,256h-52.966c-4.873,0-8.828-3.955-8.828-8.828s3.955-8.828,8.828-8.828h52.966
			c4.873,0,8.828,3.955,8.828,8.828S216.735,256,211.862,256"/>
		<path style="fill:#CEC9AE;" d="M211.862,335.448c0,4.873-3.955,8.828-8.828,8.828c-4.873,0-8.828-3.955-8.828-8.828
			c0-4.873,3.955-8.828,8.828-8.828C207.907,326.621,211.862,330.575,211.862,335.448"/>
	</g>
	<g>
		<path style="fill:#EDEBDA;" d="M317.793,88.276h-17.655c-4.873,0-8.828-3.955-8.828-8.828s3.955-8.828,8.828-8.828h17.655
			c4.873,0,8.828,3.955,8.828,8.828S322.666,88.276,317.793,88.276"/>
		<path style="fill:#EDEBDA;" d="M335.448,132.414h-35.31c-4.873,0-8.828-3.955-8.828-8.828s3.955-8.828,8.828-8.828h35.31
			c4.873,0,8.828,3.955,8.828,8.828S340.321,132.414,335.448,132.414"/>
		<path style="fill:#EDEBDA;" d="M423.724,132.414h-52.966c-4.873,0-8.828-3.955-8.828-8.828s3.955-8.828,8.828-8.828h52.966
			c4.873,0,8.828,3.955,8.828,8.828S428.597,132.414,423.724,132.414"/>
		<path style="fill:#EDEBDA;" d="M353.103,264.828h-52.966c-4.873,0-8.828-3.955-8.828-8.828c0-4.873,3.955-8.828,8.828-8.828
			h52.966c4.873,0,8.828,3.955,8.828,8.828C361.931,260.873,357.976,264.828,353.103,264.828"/>
		<path style="fill:#EDEBDA;" d="M423.724,264.828h-35.31c-4.873,0-8.828-3.955-8.828-8.828c0-4.873,3.955-8.828,8.828-8.828h35.31
			c4.873,0,8.828,3.955,8.828,8.828C432.552,260.873,428.597,264.828,423.724,264.828"/>
		<path style="fill:#EDEBDA;" d="M423.724,176.552h-70.621c-4.873,0-8.828-3.955-8.828-8.828s3.955-8.828,8.828-8.828h70.621
			c4.873,0,8.828,3.955,8.828,8.828S428.597,176.552,423.724,176.552"/>
		<path style="fill:#EDEBDA;" d="M317.793,176.552h-17.655c-4.873,0-8.828-3.955-8.828-8.828s3.955-8.828,8.828-8.828h17.655
			c4.873,0,8.828,3.955,8.828,8.828S322.666,176.552,317.793,176.552"/>
		<path style="fill:#EDEBDA;" d="M423.724,220.69h-17.655c-4.873,0-8.828-3.955-8.828-8.828c0-4.873,3.955-8.828,8.828-8.828h17.655
			c4.873,0,8.828,3.955,8.828,8.828C432.552,216.735,428.597,220.69,423.724,220.69"/>
		<path style="fill:#EDEBDA;" d="M370.759,220.69h-70.621c-4.873,0-8.828-3.955-8.828-8.828c0-4.873,3.955-8.828,8.828-8.828h70.621
			c4.873,0,8.828,3.955,8.828,8.828C379.586,216.735,375.631,220.69,370.759,220.69"/>
		<path style="fill:#EDEBDA;" d="M423.724,308.966h-70.621c-4.873,0-8.828-3.955-8.828-8.828s3.955-8.828,8.828-8.828h70.621
			c4.873,0,8.828,3.955,8.828,8.828S428.597,308.966,423.724,308.966"/>
		<path style="fill:#EDEBDA;" d="M317.793,308.966h-17.655c-4.873,0-8.828-3.955-8.828-8.828s3.955-8.828,8.828-8.828h17.655
			c4.873,0,8.828,3.955,8.828,8.828S322.666,308.966,317.793,308.966"/>
		<path style="fill:#EDEBDA;" d="M370.759,353.103h-70.621c-4.873,0-8.828-3.955-8.828-8.828c0-4.873,3.955-8.828,8.828-8.828
			h70.621c4.873,0,8.828,3.955,8.828,8.828C379.586,349.149,375.631,353.103,370.759,353.103"/>
		<path style="fill:#EDEBDA;" d="M423.724,344.276c0,4.873-3.955,8.828-8.828,8.828s-8.828-3.955-8.828-8.828
			c0-4.873,3.955-8.828,8.828-8.828S423.724,339.403,423.724,344.276"/>
	</g>
</g>
</svg>