<?xml version="1.0" encoding="UTF-8" standalone="no"?>
<svg
   viewBox="0 0 32 32"
   id="Interface-Essential-View-Eye--Streamline-Pixel"
   height="32"
   width="32"
   version="1.1"
   sodipodi:docname="eye.svg"
   inkscape:version="1.3.2 (091e20e, 2023-11-25)"
   xmlns:inkscape="http://www.inkscape.org/namespaces/inkscape"
   xmlns:sodipodi="http://sodipodi.sourceforge.net/DTD/sodipodi-0.dtd"
   xmlns="http://www.w3.org/2000/svg"
   xmlns:svg="http://www.w3.org/2000/svg">
  <defs
     id="defs29" />
  <sodipodi:namedview
     id="namedview29"
     pagecolor="#ffffff"
     bordercolor="#000000"
     borderopacity="0.25"
     inkscape:showpageshadow="2"
     inkscape:pageopacity="0.0"
     inkscape:pagecheckerboard="0"
     inkscape:deskcolor="#d1d1d1"
     inkscape:zoom="7.375"
     inkscape:cx="14.033898"
     inkscape:cy="12.745763"
     inkscape:window-width="1312"
     inkscape:window-height="429"
     inkscape:window-x="0"
     inkscape:window-y="34"
     inkscape:window-maximized="0"
     inkscape:current-layer="Interface-Essential-View-Eye--Streamline-Pixel" />
  <desc
     id="desc1">
    Interface Essential View Eye Streamline Icon: https://streamlinehq.com
  </desc>
  <title
     id="title1">interface-essential-view-eye</title>
  <g
     id="g29"
     style="fill:#ee8ea0;fill-opacity:1">
    <path
       d="M29.71 14.475h1.53v3.05h-1.53Z"
       fill="#000000"
       stroke-width="1"
       id="path1"
       style="fill:#ee8ea0;fill-opacity:1" />
    <path
       d="M28.19 17.525h1.52v1.52h-1.52Z"
       fill="#000000"
       stroke-width="1"
       id="path2"
       style="fill:#ee8ea0;fill-opacity:1" />
    <path
       d="M28.19 12.955h1.52v1.52h-1.52Z"
       fill="#000000"
       stroke-width="1"
       id="path3"
       style="fill:#ee8ea0;fill-opacity:1" />
    <path
       d="M26.67 19.045h1.52v1.53h-1.52Z"
       fill="#000000"
       stroke-width="1"
       id="path4"
       style="fill:#ee8ea0;fill-opacity:1" />
    <path
       d="M26.67 11.425h1.52v1.53h-1.52Z"
       fill="#000000"
       stroke-width="1"
       id="path5"
       style="fill:#ee8ea0;fill-opacity:1" />
    <path
       d="M23.62 20.575h3.05v1.52h-3.05Z"
       fill="#000000"
       stroke-width="1"
       id="path6"
       style="fill:#ee8ea0;fill-opacity:1" />
    <path
       d="M23.62 9.905h3.05v1.52h-3.05Z"
       fill="#000000"
       stroke-width="1"
       id="path7"
       style="fill:#ee8ea0;fill-opacity:1" />
    <path
       d="M20.57 22.095h3.05v1.52h-3.05Z"
       fill="#000000"
       stroke-width="1"
       id="path8"
       style="fill:#ee8ea0;fill-opacity:1" />
    <path
       d="M20.57 12.955h1.52v6.09h-1.52Z"
       fill="#000000"
       stroke-width="1"
       id="path9"
       style="fill:#ee8ea0;fill-opacity:1" />
    <path
       d="M20.57 8.385h3.05v1.52h-3.05Z"
       fill="#000000"
       stroke-width="1"
       id="path10"
       style="fill:#ee8ea0;fill-opacity:1" />
    <path
       d="M19.05 19.045h1.52v1.53h-1.52Z"
       fill="#000000"
       stroke-width="1"
       id="path11"
       style="fill:#ee8ea0;fill-opacity:1" />
    <path
       d="M19.05 11.425h1.52v1.53h-1.52Z"
       fill="#000000"
       stroke-width="1"
       id="path12"
       style="fill:#ee8ea0;fill-opacity:1" />
    <path
       d="M11.43 23.615h9.14v1.53h-9.14Z"
       fill="#000000"
       stroke-width="1"
       id="path13"
       style="fill:#ee8ea0;fill-opacity:1" />
    <path
       d="M12.95 20.575h6.1v1.52h-6.1Z"
       fill="#000000"
       stroke-width="1"
       id="path14"
       style="fill:#ee8ea0;fill-opacity:1" />
    <path
       d="m17.52 12.955 -3.04 0 0 1.52 -1.53 0 0 3.05 1.53 0 0 1.52 3.04 0 0 -1.52 1.53 0 0 -3.05 -1.53 0 0 -1.52z"
       fill="#000000"
       stroke-width="1"
       id="path15"
       style="fill:#ee8ea0;fill-opacity:1" />
    <path
       d="M12.95 9.905h6.1v1.52h-6.1Z"
       fill="#000000"
       stroke-width="1"
       id="path16"
       style="fill:#ee8ea0;fill-opacity:1" />
    <path
       d="M11.43 6.855h9.14v1.53h-9.14Z"
       fill="#000000"
       stroke-width="1"
       id="path17"
       style="fill:#ee8ea0;fill-opacity:1" />
    <path
       d="M11.43 19.045h1.52v1.53h-1.52Z"
       fill="#000000"
       stroke-width="1"
       id="path18"
       style="fill:#ee8ea0;fill-opacity:1" />
    <path
       d="M11.43 11.425h1.52v1.53h-1.52Z"
       fill="#000000"
       stroke-width="1"
       id="path19"
       style="fill:#ee8ea0;fill-opacity:1" />
    <path
       d="M8.38 22.095h3.05v1.52H8.38Z"
       fill="#000000"
       stroke-width="1"
       id="path20"
       style="fill:#ee8ea0;fill-opacity:1" />
    <path
       d="M9.9 12.955h1.53v6.09H9.9Z"
       fill="#000000"
       stroke-width="1"
       id="path21"
       style="fill:#ee8ea0;fill-opacity:1" />
    <path
       d="M8.38 8.385h3.05v1.52H8.38Z"
       fill="#000000"
       stroke-width="1"
       id="path22"
       style="fill:#ee8ea0;fill-opacity:1" />
    <path
       d="M5.33 20.575h3.05v1.52H5.33Z"
       fill="#000000"
       stroke-width="1"
       id="path23"
       style="fill:#ee8ea0;fill-opacity:1" />
    <path
       d="M5.33 9.905h3.05v1.52H5.33Z"
       fill="#000000"
       stroke-width="1"
       id="path24"
       style="fill:#ee8ea0;fill-opacity:1" />
    <path
       d="M3.81 19.045h1.52v1.53H3.81Z"
       fill="#000000"
       stroke-width="1"
       id="path25"
       style="fill:#ee8ea0;fill-opacity:1" />
    <path
       d="M3.81 11.425h1.52v1.53H3.81Z"
       fill="#000000"
       stroke-width="1"
       id="path26"
       style="fill:#ee8ea0;fill-opacity:1" />
    <path
       d="M2.29 17.525h1.52v1.52H2.29Z"
       fill="#000000"
       stroke-width="1"
       id="path27"
       style="fill:#ee8ea0;fill-opacity:1" />
    <path
       d="M2.29 12.955h1.52v1.52H2.29Z"
       fill="#000000"
       stroke-width="1"
       id="path28"
       style="fill:#ee8ea0;fill-opacity:1" />
    <path
       d="M0.76 14.475h1.53v3.05H0.76Z"
       fill="#000000"
       stroke-width="1"
       id="path29"
       style="fill:#ee8ea0;fill-opacity:1" />
  </g>
</svg>
