<?xml version="1.0" encoding="UTF-8" standalone="no"?>
<svg
   viewBox="0 0 32 32"
   id="Interface-Essential-Dial-Pad-Finger-2--Streamline-Pixel"
   height="32"
   width="32"
   version="1.1"
   sodipodi:docname="hand.svg"
   inkscape:version="1.3.2 (091e20e, 2023-11-25)"
   xmlns:inkscape="http://www.inkscape.org/namespaces/inkscape"
   xmlns:sodipodi="http://sodipodi.sourceforge.net/DTD/sodipodi-0.dtd"
   xmlns="http://www.w3.org/2000/svg"
   xmlns:svg="http://www.w3.org/2000/svg">
  <defs
     id="defs32" />
  <sodipodi:namedview
     id="namedview32"
     pagecolor="#ffffff"
     bordercolor="#000000"
     borderopacity="0.25"
     inkscape:showpageshadow="2"
     inkscape:pageopacity="0.0"
     inkscape:pagecheckerboard="0"
     inkscape:deskcolor="#d1d1d1"
     inkscape:export-bgcolor="#ffffffff"
     inkscape:zoom="15.296823"
     inkscape:cx="10.655807"
     inkscape:cy="18.729379"
     inkscape:window-width="1472"
     inkscape:window-height="894"
     inkscape:window-x="0"
     inkscape:window-y="34"
     inkscape:window-maximized="1"
     inkscape:current-layer="Interface-Essential-Dial-Pad-Finger-2--Streamline-Pixel" />
  <desc
     id="desc1">
    Interface Essential Dial Pad Finger 2 Streamline Icon: https://streamlinehq.com
  </desc>
  <title
     id="title1">interface-essential-dial-pad-finger-2</title>
  <rect
     x="9.265872"
     y="3.7540846"
     width="1.2973099"
     height="14.340125"
     fill="#111111"
     id="rect1"
     style="stroke-width:0.0893974" />
  <rect
     x="13.157769"
     y="3.7540846"
     width="1.2973099"
     height="11.75886"
     fill="#111111"
     id="rect2"
     style="stroke-width:0.0893974" />
  <rect
     x="17.049751"
     y="10.207161"
     width="1.2973099"
     height="6.5964484"
     fill="#111111"
     id="rect3"
     style="stroke-width:0.0893974" />
  <rect
     x="20.941704"
     y="11.497758"
     width="1.2973099"
     height="6.5964484"
     fill="#111111"
     id="rect4"
     style="stroke-width:0.0893974" />
  <rect
     x="24.833675"
     y="14.078938"
     width="1.2973099"
     height="7.8870554"
     fill="#111111"
     id="rect5"
     style="stroke-width:0.0893974" />
  <rect
     x="23.536289"
     y="21.966022"
     width="1.2973099"
     height="3.7284234"
     fill="#111111"
     id="rect6"
     style="stroke-width:0.0893974" />
  <rect
     x="22.238997"
     y="25.694427"
     width="1.2973099"
     height="4.0152264"
     fill="#111111"
     id="rect7"
     style="stroke-width:0.0893974" />
  <rect
     x="10.563203"
     y="27.128475"
     width="1.2973099"
     height="2.5812137"
     fill="#111111"
     id="rect8"
     style="stroke-width:0.0893974" />
  <rect
     x="9.265872"
     y="24.547201"
     width="1.2973099"
     height="2.5812137"
     fill="#111111"
     id="rect9"
     style="stroke-width:0.0893974" />
  <rect
     x="7.9685879"
     y="21.966022"
     width="1.2973099"
     height="2.5812137"
     fill="#111111"
     id="rect10"
     style="stroke-width:0.0893974" />
  <rect
     x="6.671247"
     y="19.384762"
     width="1.2973099"
     height="2.5812137"
     fill="#111111"
     id="rect11"
     style="stroke-width:0.0893974" />
  <rect
     x="5.3739643"
     y="16.803583"
     width="1.2973099"
     height="2.5812137"
     fill="#111111"
     id="rect12"
     style="stroke-width:0.0893974" />
  <rect
     y="14.222322"
     width="1.2973099"
     height="3.8718295"
     fill="#111111"
     id="rect13"
     x="4.0766525"
     style="stroke-width:0.0893974" />
  <rect
     x="7.9685879"
     y="15.513"
     width="1.2973099"
     height="1.2906069"
     fill="#111111"
     id="rect14"
     style="stroke-width:0.0893974" />
  <rect
     x="5.3739643"
     y="14.222322"
     width="2.5946198"
     height="1.2906069"
     fill="#111111"
     id="rect15"
     style="stroke-width:0.0893974" />
  <rect
     x="10.563203"
     y="2.4634881"
     width="2.5946198"
     height="1.2906069"
     fill="#111111"
     id="rect16"
     style="stroke-width:0.0893974" />
  <rect
     x="14.455146"
     y="8.9165382"
     width="2.5946198"
     height="1.2906069"
     fill="#111111"
     id="rect17"
     style="stroke-width:0.0893974" />
  <rect
     x="18.347136"
     y="10.207161"
     width="2.5946198"
     height="1.2906069"
     fill="#111111"
     id="rect18"
     style="stroke-width:0.0893974" />
  <rect
     x="11.860532"
     y="28.41906"
     width="10.378515"
     height="1.2906069"
     fill="#111111"
     id="rect19"
     style="stroke-width:0.0893974" />
  <rect
     x="22.238997"
     y="11.497758"
     width="1.2973099"
     height="1.2906069"
     fill="#111111"
     id="rect20"
     style="stroke-width:0.0893974" />
  <rect
     x="23.536289"
     y="12.788355"
     width="1.2973099"
     height="1.2906069"
     fill="#111111"
     id="rect21"
     style="stroke-width:0.0893974" />
  <path
     d="m 5.3739687,15.512999 h 2.5946284 v 1.290588 h 1.2973081 v 1.290588 H 10.563213 V 3.7540859 h 2.594653 V 15.512999 h 1.297284 v -5.305867 h 2.594592 v 6.596455 h 1.297381 v -5.305814 h 2.59458 v 6.596402 h 1.297295 v -5.305822 h 1.297382 v 1.290596 h 1.297283 v 7.887087 H 23.53638 v 3.728383 h -1.297382 v 2.724646 H 11.860521 V 27.128477 H 10.563213 V 24.547204 H 9.2659052 V 21.966036 H 7.9685971 V 19.384763 H 6.6712768 V 16.803587 H 5.3739687 Z"
     fill="#111111"
     id="path21"
     style="stroke-width:0.0893974" />
  <rect
     x="9.9867163"
     y="3.0370669"
     width="1.2973099"
     height="14.340125"
     fill="#111111"
     id="rect22"
     style="stroke-width:0.0893974" />
  <rect
     x="13.878576"
     y="3.0370669"
     width="1.2973099"
     height="11.75886"
     fill="#111111"
     id="rect23"
     style="stroke-width:0.0893974" />
  <rect
     x="17.770538"
     y="9.4901438"
     width="1.2973099"
     height="6.5964484"
     fill="#111111"
     id="rect24"
     style="stroke-width:0.0893974" />
  <rect
     x="21.662493"
     y="10.780782"
     width="1.2973099"
     height="6.5964484"
     fill="#111111"
     id="rect25"
     style="stroke-width:0.0893974" />
  <rect
     x="25.554464"
     y="13.36196"
     width="1.2973099"
     height="7.8870554"
     fill="#111111"
     id="rect26"
     style="stroke-width:0.0893974" />
  <rect
     x="24.257097"
     y="21.249044"
     width="1.2973099"
     height="3.7284234"
     fill="#111111"
     id="rect27"
     style="stroke-width:0.0893974" />
  <rect
     x="22.959805"
     y="24.977436"
     width="1.2973099"
     height="4.0152264"
     fill="#111111"
     id="rect28"
     style="stroke-width:0.0893974" />
  <rect
     x="11.284009"
     y="26.411499"
     width="1.2973099"
     height="2.5812137"
     fill="#111111"
     id="rect29"
     style="stroke-width:0.0893974" />
  <rect
     x="9.9867163"
     y="23.830225"
     width="1.2973099"
     height="2.5812137"
     fill="#111111"
     id="rect30"
     style="stroke-width:0.0893974" />
  <rect
     x="8.6893854"
     y="21.249044"
     width="1.2973099"
     height="2.5812137"
     fill="#111111"
     id="rect31"
     style="stroke-width:0.0893974" />
  <rect
     x="7.3920546"
     y="18.667786"
     width="1.2973099"
     height="2.5812137"
     fill="#111111"
     id="rect32"
     style="stroke-width:0.0893974" />
  <rect
     x="6.0947714"
     y="16.086592"
     width="1.2973099"
     height="2.5812137"
     fill="#111111"
     id="rect33"
     style="stroke-width:0.0893974" />
  <rect
     x="4.7974505"
     y="13.505331"
     width="1.2973099"
     height="3.8718295"
     fill="#111111"
     id="rect34"
     style="stroke-width:0.0893974" />
  <rect
     x="8.6893854"
     y="14.796009"
     width="1.2973099"
     height="1.2906069"
     fill="#111111"
     id="rect35"
     style="stroke-width:0.0893974" />
  <rect
     x="6.0947714"
     y="13.505331"
     width="2.5946198"
     height="1.2906069"
     fill="#111111"
     id="rect36"
     style="stroke-width:0.0893974" />
  <rect
     x="11.284009"
     y="1.746484"
     width="2.5946198"
     height="1.2906069"
     fill="#111111"
     id="rect37"
     style="stroke-width:0.0893974" />
  <rect
     x="15.175953"
     y="8.1995335"
     width="2.5946198"
     height="1.2906069"
     fill="#111111"
     id="rect38"
     style="stroke-width:0.0893974" />
  <rect
     x="19.067924"
     y="9.4901438"
     width="2.5946198"
     height="1.2906069"
     fill="#111111"
     id="rect39"
     style="stroke-width:0.0893974" />
  <rect
     x="12.58133"
     y="27.702082"
     width="10.378515"
     height="1.2906069"
     fill="#111111"
     id="rect40"
     style="stroke-width:0.0893974" />
  <rect
     x="22.959805"
     y="10.780782"
     width="1.2973099"
     height="1.2906069"
     fill="#111111"
     id="rect41"
     style="stroke-width:0.0893974" />
  <rect
     x="24.257097"
     y="12.071363"
     width="1.2973099"
     height="1.2906069"
     fill="#111111"
     id="rect42"
     style="stroke-width:0.0893974" />
  <path
     d="m 6.0947672,14.795921 h 2.5946285 v 1.290685 h 1.2973081 v 1.290588 H 11.284024 V 3.0370788 h 2.594641 V 14.795921 h 1.297296 V 9.490125 h 2.594579 v 6.596481 h 1.297381 v -5.305919 h 2.59458 v 6.596507 h 1.297296 v -5.305822 h 1.297369 v 1.290588 h 1.297296 v 7.886999 h -1.297296 v 3.728479 h -1.297369 v 2.724646 H 12.581332 V 26.411399 H 11.284024 V 23.830232 H 9.9867038 V 21.248959 H 8.6893957 V 18.667783 H 7.3920754 V 16.086606 H 6.0947672 Z"
     fill="#cccccc"
     id="path42"
     style="fill:#ee8fa1;fill-opacity:1;stroke-width:0.0893974" />
</svg>
