<?xml version="1.0" encoding="UTF-8"?><svg id="svg98" xmlns="http://www.w3.org/2000/svg" viewBox="0 0 99.4 99.4"><defs><style>.cls-1{fill:#606060;}</style></defs><g id="g38"><g id="g37"><polygon id="polygon27" class="cls-1" points="93.2 21.8 93.2 28 86.9 28 86.9 34.2 93.2 34.2 93.2 40.4 93.2 46.6 93.2 52.8 93.2 59 93.2 65.2 93.2 71.4 86.9 71.4 86.9 77.6 80.7 77.6 74.5 77.6 68.3 77.6 62.1 77.6 55.9 77.6 49.7 77.6 43.5 77.6 37.3 77.6 31.1 77.6 24.9 77.6 18.7 77.6 12.4 77.6 12.4 71.4 6.2 71.4 6.2 65.2 6.2 59 6.2 52.8 6.2 46.6 6.2 40.4 6.2 34.2 12.4 34.2 12.4 28 6.2 28 6.2 21.8 0 21.8 0 28 0 34.2 0 40.4 0 46.6 0 52.8 0 59 0 65.2 0 71.4 0 77.6 6.2 77.6 6.2 83.8 12.4 83.8 18.7 83.8 24.9 83.8 31.1 83.8 37.3 83.8 43.5 83.8 49.7 83.8 55.9 83.8 62.1 83.8 68.3 83.8 74.5 83.8 80.7 83.8 86.9 83.8 93.2 83.8 93.2 77.6 99.4 77.6 99.4 71.4 99.4 65.2 99.4 59 99.4 52.8 99.4 46.6 99.4 40.4 99.4 34.2 99.4 28 99.4 21.8 93.2 21.8"/><rect id="rect27" class="cls-1" x="68.3" y="52.8" width="6.2" height="6.2"/><rect id="rect28" class="cls-1" x="24.9" y="52.8" width="6.2" height="6.2"/><polygon id="polygon28" class="cls-1" points="49.7 59 55.9 59 55.9 52.8 49.7 52.8 43.5 52.8 43.5 59 49.7 59"/><polygon id="polygon29" class="cls-1" points="37.3 52.8 43.5 52.8 43.5 46.6 37.3 46.6 31.1 46.6 31.1 52.8 37.3 52.8"/><polygon id="polygon30" class="cls-1" points="68.3 52.8 68.3 46.6 62.1 46.6 55.9 46.6 55.9 52.8 62.1 52.8 68.3 52.8"/><polygon id="polygon31" class="cls-1" points="24.9 46.6 31.1 46.6 31.1 40.4 24.9 40.4 18.7 40.4 18.7 46.6 24.9 46.6"/><polygon id="polygon32" class="cls-1" points="80.7 46.6 80.7 40.4 74.5 40.4 68.3 40.4 68.3 46.6 74.5 46.6 80.7 46.6"/><rect id="rect32" class="cls-1" x="18.7" y="59" width="6.2" height="6.2"/><rect id="rect33" class="cls-1" x="74.5" y="59" width="6.2" height="6.2"/><rect id="rect34" class="cls-1" x="12.4" y="65.2" width="6.2" height="6.2"/><rect id="rect35" class="cls-1" x="80.7" y="65.2" width="6.2" height="6.2"/><rect id="rect36" class="cls-1" x="12.4" y="34.2" width="6.2" height="6.2"/><rect id="rect37" class="cls-1" x="80.7" y="34.2" width="6.2" height="6.2"/><polygon id="polygon37" class="cls-1" points="18.7 21.8 24.9 21.8 31.1 21.8 37.3 21.8 43.5 21.8 49.7 21.8 55.9 21.8 62.1 21.8 68.3 21.8 74.5 21.8 80.7 21.8 86.9 21.8 93.2 21.8 93.2 15.6 86.9 15.6 80.7 15.6 74.5 15.6 68.3 15.6 62.1 15.6 55.9 15.6 49.7 15.6 43.5 15.6 37.3 15.6 31.1 15.6 24.9 15.6 18.7 15.6 12.4 15.6 6.2 15.6 6.2 21.8 12.4 21.8 18.7 21.8"/></g></g></svg>