<?xml version="1.0" encoding="UTF-8" standalone="no"?>
<svg
   version="1.1"
   viewBox="-5 -10 50 50"
   id="svg17"
   sodipodi:docname="flower.svg"
   width="50"
   height="50"
   inkscape:version="1.3.2 (091e20e, 2023-11-25)"
   inkscape:export-filename="Flower Icon.png"
   inkscape:export-xdpi="96"
   inkscape:export-ydpi="96"
   xmlns:inkscape="http://www.inkscape.org/namespaces/inkscape"
   xmlns:sodipodi="http://sodipodi.sourceforge.net/DTD/sodipodi-0.dtd"
   xmlns="http://www.w3.org/2000/svg"
   xmlns:svg="http://www.w3.org/2000/svg">
  <defs
     id="defs17" />
  <sodipodi:namedview
     id="namedview17"
     pagecolor="#ffffff"
     bordercolor="#000000"
     borderopacity="0.25"
     inkscape:showpageshadow="2"
     inkscape:pageopacity="0.0"
     inkscape:pagecheckerboard="0"
     inkscape:deskcolor="#d1d1d1"
     inkscape:zoom="4.3622275"
     inkscape:cx="29.457427"
     inkscape:cy="29.457427"
     inkscape:window-width="1312"
     inkscape:window-height="840"
     inkscape:window-x="0"
     inkscape:window-y="34"
     inkscape:window-maximized="0"
     inkscape:current-layer="svg17"
     inkscape:export-bgcolor="#ffffff00" />
  <g
     id="g16"
     style="fill:#ee8fa1;fill-opacity:1"
     transform="translate(-30.044825,-34.419354)">
    <path
       d="m 33.387,37.988 c 0.68359,1.6172 1.7578,3.1602 3.2305,4.6289 0.6875,0.6875 1.4648,1.3633 2.3281,2.0195 3.2031,2.0156 6.0703,3.043 8.5938,3.0859 0.01563,-0.05078 0.02734,-0.10547 0.05078,-0.14453 0.13672,-0.23828 0.40234,-0.41406 0.78516,-0.52734 0.17188,-0.25781 0.34766,-0.43359 0.52344,-0.51562 0.04297,-0.01953 0.08984,-0.01953 0.13672,-0.03516 -0.01172,-0.01953 -0.02344,-0.04297 -0.01563,-0.06641 0.01172,-0.04297 0.01953,-0.07813 0.02344,-0.10938 v -0.0078 c 0.0039,-0.01563 0.0078,-0.08984 0.01563,-0.21484 0.0078,-0.10937 0.0078,-0.21094 0.0039,-0.3125 0,-0.0078 0.0039,-0.01172 0.0078,-0.01562 -1.3438,-1.7617 -2.9258,-4.9805 -4.5547,-9.7188 -0.32031,-0.9375 -0.42969,-1.7969 -0.36328,-2.5781 0.01563,0.01953 0.03125,0.03516 0.03125,0.03516 l -0.02344,-0.12891 c 0.01563,-0.03125 0.04687,-0.08594 0.03516,-0.08984 l -0.02734,-0.0078 -0.01953,-0.0039 h -0.0078 l -0.01953,-0.10156 -0.09766,0.14453 c -0.0625,-0.07813 -0.12891,-0.14844 -0.19531,-0.21484 -0.36719,-0.36719 -0.76562,-0.57812 -1.1953,-0.62891 h -0.0078 c -0.375,-0.08984 -0.73438,0.05078 -1.082,0.42188 -0.01563,0.01563 -0.03906,0.02734 -0.05859,0.02734 -0.02344,0 -0.04687,-0.0078 -0.0625,-0.02344 -0.32031,-0.30078 -0.85156,-0.42188 -1.5898,-0.35938 h -0.0039 c -0.16406,0.0039 -0.33984,0.10547 -0.52734,0.30469 -0.01563,0.01563 -0.03906,0.02734 -0.0625,0.02734 -0.02344,0 -0.04687,-0.0078 -0.0625,-0.02344 -0.0039,-0.0039 -0.0039,-0.0039 -0.0078,-0.0078 -0.25781,-0.25781 -0.59375,-0.26953 -1.0117,-0.03125 -0.37891,0.23438 -0.74219,0.69922 -1.082,1.3867 -0.01172,0.02344 -0.03125,0.03906 -0.05859,0.04687 -0.02344,0.0078 -0.05078,0 -0.07031,-0.01563 -0.28516,-0.21094 -0.80078,-0.28906 -1.543,-0.23047 -0.47656,0.27344 -0.73047,0.79297 -0.76172,1.5508 0,0.04297 -0.03516,0.07812 -0.08203,0.08203 -0.42969,0.02734 -0.67578,0.12891 -0.74219,0.30859 l -0.44141,1.7891 c -0.01172,0.07031 -0.0078,0.15625 0.01172,0.25391 z m 9.9102,8.2188 c -0.83594,-0.46875 -2.2773,-1.3867 -4.3242,-2.75 -0.89062,-0.60547 -1.543,-1.1016 -1.9531,-1.4961 -0.03125,-0.03125 -0.03516,-0.08594 0,-0.12109 0.03125,-0.03516 0.08594,-0.03516 0.12109,-0.0039 0.40234,0.38672 1.0469,0.87891 1.9297,1.4766 2.043,1.3633 3.4805,2.2773 4.3125,2.7461 0.0078,0.0039 0.01172,0.0078 0.01953,0.01563 0.02734,0.02734 0.03516,0.07031 0.01563,0.10156 -0.02734,0.03906 -0.07813,0.05078 -0.12109,0.03125 z m -2.8828,-12.652 c 0.03516,-0.02734 0.08594,-0.02734 0.11719,0.0039 l 0.0039,0.0039 c 0.17578,0.21094 0.38672,0.49219 0.63672,0.84766 1.2539,1.8516 1.9141,2.8164 1.9805,2.8945 h 0.0039 c 0.0039,0.0039 0.0078,0.0078 0.0078,0.01172 0.21094,0.30469 0.88281,1.1992 2.0117,2.6836 0.14062,0.1875 0.29297,0.39453 0.45312,0.61719 0.34766,0.48437 0.61719,0.89062 0.80859,1.2148 0.02344,0.03906 0.01172,0.09375 -0.03125,0.11719 -0.03516,0.01953 -0.07813,0.01563 -0.10547,-0.01172 -0.0039,-0.0039 -0.0078,-0.01172 -0.01172,-0.01563 -0.19141,-0.32031 -0.45703,-0.71875 -0.80078,-1.2031 -0.16016,-0.22266 -0.30859,-0.42969 -0.44922,-0.61719 -1.125,-1.4766 -1.793,-2.3711 -2.0117,-2.6836 -0.06641,-0.07422 -0.73438,-1.0469 -1.9961,-2.9141 -0.24609,-0.35156 -0.45312,-0.62891 -0.625,-0.83594 -0.03125,-0.02734 -0.02734,-0.08203 0.0078,-0.11328 z m -2.2539,0.86719 c 0.03516,-0.03125 0.08594,-0.03125 0.11719,0.0039 l 0.0039,0.0039 c 0.57422,0.61719 1.7305,1.9297 3.4727,3.9336 l 4.8242,5.6055 0.0039,0.0039 c 0.04687,0.05859 0.40234,0.45703 1.0664,1.2031 0.30469,0.35547 0.51562,0.62109 0.63281,0.79688 0.02734,0.03906 0.01563,0.09375 -0.02344,0.12109 -0.03516,0.02344 -0.08203,0.01953 -0.10937,-0.01172 -0.0039,-0.0039 -0.0078,-0.0078 -0.01172,-0.01172 -0.11719,-0.17187 -0.32422,-0.42969 -0.62109,-0.78125 -0.66016,-0.74219 -1.0156,-1.1445 -1.0703,-1.207 l -4.8242,-5.6055 c -1.7422,-2.0039 -2.8984,-3.3125 -3.4688,-3.9297 -0.02734,-0.03906 -0.02734,-0.09375 0.0078,-0.125 z m -2.0938,0.35938 c 0.05469,0.04687 0.13281,0.12109 0.23047,0.21875 0.07813,0.07813 0.16406,0.16797 0.26562,0.27344 0.94141,0.99219 1.9844,2.0977 3.1289,3.3164 0.28906,0.30469 0.71094,0.74219 1.2695,1.3164 0.54297,0.55469 1.1445,1.1602 1.7969,1.8164 0.23438,0.23047 0.43359,0.42969 0.59375,0.58594 0.76953,0.74609 1.2109,1.1719 1.3203,1.2852 0.0078,0.0078 0.01563,0.01563 0.01953,0.01953 0.14062,0.14062 0.27344,0.26953 0.39062,0.39062 0.22656,0.22656 0.41406,0.41797 0.5625,0.57031 0.4375,0.44531 1.0312,1.1094 1.7773,1.9922 0.03125,0.03516 0.02734,0.08984 -0.01172,0.12109 -0.03516,0.02734 -0.08594,0.02734 -0.11719,-0.0039 l -0.0039,-0.0039 c -0.74609,-0.88281 -1.3359,-1.543 -1.7695,-1.9844 -0.14844,-0.15234 -0.33203,-0.34375 -0.55859,-0.57031 -0.12109,-0.12109 -0.25,-0.25 -0.39063,-0.39062 -0.0039,-0.0039 -0.01172,-0.01172 -0.01953,-0.01953 -0.10938,-0.10938 -0.54688,-0.53516 -1.3164,-1.2812 -0.16406,-0.16016 -0.36328,-0.35547 -0.59766,-0.58984 -0.65234,-0.65625 -1.2539,-1.2617 -1.7969,-1.8164 -0.55859,-0.57422 -0.98438,-1.0117 -1.2734,-1.3164 -1.1445,-1.2227 -2.1875,-2.3281 -3.1289,-3.3164 -0.10156,-0.10547 -0.19141,-0.19922 -0.26562,-0.27344 -0.09375,-0.09375 -0.16797,-0.16406 -0.21875,-0.20703 l -0.0039,-0.0039 c -0.03125,-0.03125 -0.03516,-0.08203 -0.0039,-0.11719 0.03125,-0.03906 0.08594,-0.04297 0.12109,-0.01172 z m -1.0117,0.90234 c 0.78125,0.60547 1.5547,1.2695 2.3242,1.9961 0.40234,0.37891 0.70703,0.67187 0.91406,0.87891 0.01953,0.01953 0.03906,0.03906 0.05859,0.05859 0.02734,0.02734 0.0625,0.0625 0.10938,0.10547 0.21484,0.21484 0.63281,0.64062 1.2539,1.2773 0.02734,0.02734 0.07031,0.07031 0.13672,0.13672 0.08203,0.08203 0.19922,0.19922 0.34766,0.34766 0.03516,0.03516 0.03516,0.08594 0,0.12109 -0.03516,0.03516 -0.08594,0.03516 -0.12109,0 -0.14844,-0.14844 -0.26562,-0.26562 -0.34766,-0.34766 -0.06641,-0.06641 -0.10938,-0.11328 -0.13672,-0.13672 -0.62109,-0.63672 -1.0391,-1.0625 -1.2539,-1.2773 -0.04297,-0.04297 -0.08203,-0.08203 -0.10547,-0.10547 -0.01953,-0.01953 -0.03906,-0.03906 -0.05859,-0.05859 -0.20703,-0.20703 -0.51172,-0.5 -0.91016,-0.875 -0.76562,-0.71875 -1.5391,-1.3828 -2.3125,-1.9844 -0.0039,-0.0039 -0.0039,-0.0039 -0.0078,-0.0078 -0.03125,-0.03125 -0.03516,-0.07813 -0.0078,-0.11328 0.02344,-0.03516 0.07813,-0.04297 0.11719,-0.01563 z m -0.50781,1.7383 c 0.03516,-0.03516 0.08594,-0.03125 0.12109,0 0.10938,0.10938 0.21875,0.21875 0.32422,0.32812 1.8867,1.8867 3.4844,3.332 4.8008,4.332 0.87891,0.67969 1.7656,1.3242 2.6641,1.9375 l 4.2461,2.7422 c 0.0039,0.0039 0.01172,0.0078 0.01563,0.01172 0.02734,0.02734 0.03516,0.07422 0.01172,0.10547 -0.02734,0.03906 -0.07813,0.05078 -0.11719,0.02734 l -4.2461,-2.7422 c -0.90234,-0.61719 -1.793,-1.2656 -2.6719,-1.9453 -1.3203,-1.0078 -2.9258,-2.4531 -4.8164,-4.3477 -0.10938,-0.10938 -0.21484,-0.21484 -0.32422,-0.32812 -0.04297,-0.03516 -0.03906,-0.08984 -0.0078,-0.12109 z"
       id="path1"
       style="fill:#ee8fa1;fill-opacity:1" />
    <path
       d="m 48.609,54.258 c 0.06641,-0.08984 0.13281,-0.16797 0.19141,-0.23437 0.10156,-0.11328 0.17969,-0.19531 0.23828,-0.25391 0.02344,-0.02344 0.05469,-0.04687 0.08203,-0.07031 -0.19531,0.0039 -0.38281,-0.05078 -0.52344,-0.13672 0,0.0078 0.0078,0.01172 0.0078,0.01563 0,0.23438 -0.01953,0.48828 -0.03906,0.74219 0.01563,-0.02344 0.02344,-0.03516 0.04297,-0.0625 z"
       id="path2"
       style="fill:#ee8fa1;fill-opacity:1" />
    <path
       d="m 36.285,56.152 h 0.0039 c 3.2656,-0.76172 5.5352,-1.5195 6.8125,-2.2773 l 0.0039,-0.0039 c 1.1836,-0.58594 2.3711,-1.5938 3.5625,-3.0078 -0.03906,-0.04297 -0.07031,-0.08984 -0.08203,-0.14453 -0.05859,-0.25781 0.12109,-0.51562 0.45312,-0.77734 -0.12109,-0.30078 -0.09766,-0.57031 0.08594,-0.78906 -0.08594,-0.18359 -0.12109,-0.35156 -0.08984,-0.49609 0.02344,-0.10938 0.08203,-0.21875 0.16797,-0.32031 -0.0039,-0.0039 -0.0039,-0.0039 -0.0078,-0.0078 -0.01562,-0.01563 -0.03516,-0.03516 -0.05859,-0.05469 -0.05078,-0.04688 -0.14844,-0.13281 -0.30078,-0.26172 -0.08203,-0.06641 -0.16016,-0.11719 -0.23438,-0.15625 -0.0078,-0.0039 -0.01562,-0.0078 -0.02344,-0.01563 -0.0039,-0.0039 0,-0.0078 0,-0.0078 -2.3164,-0.25391 -4.8945,-1.2734 -7.7305,-3.0547 -0.0039,0 -0.0039,-0.0039 -0.0078,-0.0039 -0.87109,-0.66406 -1.6523,-1.3398 -2.3477,-2.0352 -0.30078,-0.30078 -0.57422,-0.60547 -0.83984,-0.91406 -0.73828,-0.30469 -1.8242,-0.53516 -2.3359,-0.32812 l -1.1133,0.91016 -0.71484,1.1562 c -0.01172,0.01953 -0.03125,0.03516 -0.05469,0.03906 -1.207,0.27344 -1.8945,0.66016 -2.0586,1.1641 0,0.0039 -0.0039,0.0078 -0.0039,0.01172 -0.08203,0.16406 -0.14453,0.59766 -0.1875,1.2969 0,0.01953 -0.0078,0.03906 -0.02344,0.05469 -0.35938,0.39062 -0.54297,0.63281 -0.55078,0.73047 0,0.0078 -0.0039,0.01563 -0.0039,0.02344 -0.07031,0.17969 -0.10156,0.50391 -0.09375,0.96875 0,0.01953 -0.0078,0.04297 -0.01953,0.05859 -0.25391,0.28906 -0.35938,0.64062 -0.32031,1.0508 v 0.0039 c 0.02344,0.38672 0.16797,0.86719 0.43359,1.4492 0.0078,0.01953 0.01172,0.04297 0.0039,0.0625 -0.17578,0.52344 -0.19531,0.95703 -0.05859,1.3008 l 0.97266,2.1133 c 0.12109,0.21875 0.25781,0.40625 0.41016,0.55859 0.05078,0.05078 0.10547,0.10156 0.16016,0.14453 l 0.0039,0.0039 c 1.8047,1.6602 3.8672,2.1797 6.1875,1.5547 z m 5.7539,-3.0234 c -2.4844,0.94531 -4.7617,1.5703 -6.832,1.8711 -0.02734,0.0039 -0.05469,-0.0039 -0.07422,-0.02344 -0.01172,-0.01172 -0.01953,-0.02734 -0.02344,-0.04687 -0.0078,-0.04688 0.02734,-0.08984 0.07422,-0.09766 2.0586,-0.30078 4.3242,-0.92188 6.7969,-1.8633 0.03125,-0.01172 0.06641,-0.0039 0.08984,0.01953 0.0078,0.0078 0.01563,0.01953 0.01953,0.03125 0.01563,0.04297 -0.0078,0.09375 -0.05078,0.10938 z m -3.9961,-7.0312 c 1.5312,0.31641 2.7109,0.58594 3.5391,0.8125 0.01563,0.0039 0.02734,0.01172 0.03906,0.02344 0.01953,0.01953 0.03125,0.05078 0.02344,0.08203 -0.01172,0.04687 -0.05859,0.07422 -0.10547,0.05859 -0.82422,-0.22266 -2.0039,-0.49219 -3.5312,-0.80859 -0.01562,-0.0039 -0.03125,-0.01172 -0.04297,-0.02344 -0.01953,-0.01953 -0.03125,-0.04688 -0.02344,-0.07813 0.0078,-0.04297 0.05469,-0.07422 0.10156,-0.06641 z m -5.2031,-2.8281 c 1.1016,0.19922 2.7617,0.69922 4.9805,1.5039 0.01172,0.0039 0.02344,0.01172 0.03125,0.01953 0.02344,0.02344 0.03125,0.05859 0.01953,0.08984 -0.01563,0.04297 -0.06641,0.06641 -0.10938,0.05078 -2.2109,-0.80078 -3.8633,-1.2969 -4.9531,-1.4961 -0.01953,-0.0039 -0.03516,-0.01172 -0.04687,-0.02344 -0.01953,-0.01953 -0.02734,-0.04687 -0.02344,-0.07422 0.0078,-0.04687 0.05469,-0.07813 0.10156,-0.07031 z m -1.6055,2.1016 c 0.33594,-0.14844 4.0312,0.51953 11.098,2.0039 0.01563,0.0039 0.03125,0.01172 0.04297,0.02344 0.01953,0.01953 0.03125,0.05078 0.02344,0.07812 -0.0078,0.04688 -0.05469,0.07422 -0.10156,0.06641 -6.9961,-1.4688 -10.656,-2.1406 -10.988,-2.0156 -0.03125,0.02734 -0.07813,0.03125 -0.10938,0.0039 -0.0039,-0.0039 -0.0039,-0.0039 -0.0078,-0.0078 -0.03125,-0.03125 -0.03516,-0.07813 -0.0078,-0.11328 0.01172,-0.01563 0.03125,-0.03125 0.05078,-0.03906 z m -1.0234,1.668 c 1.0195,-0.10937 2.418,-0.07031 4.1914,0.11719 3.125,0.25781 6.6758,0.69141 10.652,1.3047 0.01953,0.0039 0.03516,0.01172 0.04687,0.02344 0.01953,0.01953 0.02734,0.04687 0.02344,0.07422 -0.0078,0.04687 -0.05078,0.07813 -0.09766,0.07031 -3.9727,-0.60938 -7.5234,-1.0469 -10.641,-1.3008 h -0.0039 c -1.7617,-0.1875 -3.1484,-0.22656 -4.1602,-0.12109 -0.02734,0.0039 -0.05078,-0.0078 -0.07031,-0.02344 -0.01172,-0.01172 -0.02344,-0.03125 -0.02344,-0.05078 0,-0.04687 0.03516,-0.08984 0.08203,-0.09375 z m -0.39453,3.0078 c -0.02344,0 -0.04687,-0.0078 -0.0625,-0.02344 -0.01563,-0.01563 -0.02344,-0.03516 -0.02344,-0.05859 0,-0.04687 0.03906,-0.08594 0.08594,-0.08594 3.6562,-0.05469 7.9219,-0.24609 12.789,-0.57422 h 0.0039 l 3.5039,-0.07813 c 0.02344,0 0.04687,0.0078 0.0625,0.02344 0.01563,0.01563 0.02344,0.03516 0.02344,0.05859 0,0.04687 -0.03516,0.08594 -0.08203,0.08594 l -3.5039,0.07813 c -4.8711,0.32812 -9.1367,0.51953 -12.797,0.57422 z m 0.47656,2.0781 c -0.01563,-0.01563 -0.02344,-0.03516 -0.02344,-0.05859 0,-0.04687 0.03906,-0.08594 0.08594,-0.08594 5.4844,-0.01563 10.191,-0.47656 14.117,-1.3906 0.03125,-0.0078 0.05859,0.0039 0.08203,0.02344 0.01172,0.01172 0.01953,0.02344 0.02344,0.04297 0.01172,0.04687 -0.01953,0.09375 -0.0625,0.10156 -3.9375,0.91406 -8.6562,1.3789 -14.156,1.3945 -0.03125,0 -0.05469,-0.01172 -0.06641,-0.02734 z m 1.4531,2.082 c -0.01563,-0.01563 -0.02344,-0.03516 -0.02344,-0.05859 0,-0.04688 0.03906,-0.08594 0.08594,-0.08594 4.5039,-0.07031 9.0664,-1.0859 13.688,-3.0469 0.03125,-0.01563 0.07031,-0.0039 0.09375,0.01953 0.0078,0.0078 0.01563,0.01563 0.01953,0.02734 0.01953,0.04297 0,0.09375 -0.04687,0.11328 -4.6445,1.9688 -9.2266,2.9883 -13.754,3.0586 -0.02344,-0.0039 -0.04687,-0.01172 -0.0625,-0.02734 z"
       id="path3"
       style="fill:#ee8fa1;fill-opacity:1" />
    <path
       d="m 54.418,50.117 c 0.01953,-0.14844 -0.05859,-0.30469 -0.31641,-0.46875 -0.02344,-0.01563 -0.03906,-0.03906 -0.03906,-0.06641 0,-0.02734 0.0078,-0.05469 0.03125,-0.07031 0.23438,-0.19922 0.29688,-0.38281 0.23438,-0.5625 -0.05859,-0.17188 -0.21484,-0.27734 -0.50781,-0.29688 -0.02734,0 -0.05469,-0.01953 -0.07031,-0.04297 -0.01563,-0.02344 -0.01563,-0.05469 0,-0.08203 0.11328,-0.22266 0.11719,-0.40234 0.05078,-0.55859 -0.05859,-0.13281 -0.23828,-0.28906 -0.60156,-0.45312 -0.03125,-0.01563 -0.05469,-0.04687 -0.05078,-0.08594 0.02344,-0.30859 -0.05469,-0.44922 -0.17578,-0.50781 -0.10156,-0.05078 -0.30469,-0.05859 -0.64844,0.01953 -0.03516,0.0078 -0.07422,-0.0078 -0.09375,-0.03906 -0.17578,-0.28516 -0.38281,-0.4375 -0.62109,-0.48828 -0.19922,-0.03906 -0.41406,0 -0.64844,0.14453 -0.02344,0.01563 -0.05859,0.01563 -0.08203,0.0039 -0.24609,-0.125 -0.46875,-0.16406 -0.66797,-0.13672 -0.10938,0.01563 -0.24219,0.06641 -0.39844,0.18359 -0.01953,0.01563 -0.04687,0.01953 -0.07031,0.01563 -0.30078,-0.06641 -0.55078,-0.04297 -0.76563,0.05859 -0.14062,0.06641 -0.30078,0.21484 -0.47266,0.47656 -0.01172,0.01563 -0.02734,0.03125 -0.04687,0.03516 -0.37891,0.10938 -0.60156,0.26953 -0.71484,0.46094 -0.05859,0.10156 -0.09766,0.25391 -0.08984,0.48047 0,0.03125 -0.01563,0.05859 -0.03906,0.07422 -0.25391,0.16797 -0.375,0.32812 -0.40625,0.48047 -0.02344,0.10547 -0.0039,0.24219 0.09375,0.42969 0.01563,0.03125 0.01172,0.07422 -0.01563,0.09766 -0.17188,0.17578 -0.20312,0.40625 -0.0625,0.70703 0.01563,0.03516 0.0078,0.08203 -0.02734,0.10547 -0.36719,0.27344 -0.47266,0.48047 -0.4375,0.64062 0.0078,0.02734 0.27344,0.20703 0.41406,0.24219 0.02344,0.0078 0.04687,0.02344 0.05469,0.04688 0.01172,0.02344 0.01172,0.05078 0,0.07422 -0.10547,0.23438 -0.07812,0.33984 -0.01172,0.39062 0.0078,0.0039 0.01172,0.01172 0.01953,0.01953 0.03125,0.03906 0.21875,0.125 0.625,0.25781 0.02344,0.0078 0.04297,0.02344 0.05078,0.04687 0.01172,0.02344 0.01172,0.04687 0,0.07031 -0.125,0.28906 -0.09375,0.45313 0,0.55469 0.09375,0.09766 0.29688,0.17969 0.66406,0.20703 0.02734,0.0039 0.05078,0.01563 0.06641,0.03906 0.01563,0.02344 0.01563,0.05078 0.0078,0.07813 -0.15625,0.39062 -0.13281,0.57812 -0.05469,0.65234 0.14453,0.13281 0.46875,0.22656 0.74609,0.13281 0.03125,-0.01172 0.05859,0.0039 0.08203,0.02344 0.0078,0.0039 0.01953,-0.0039 0.02344,0.0039 0.11719,0.15625 0.37891,0.21094 0.84766,0.09766 0.03906,-0.01172 0.08203,0.01172 0.09766,0.05078 0.08984,0.21484 0.17188,0.26172 0.23047,0.26562 0.11328,0.0039 0.23438,-0.07031 0.35547,-0.32422 0.01172,-0.02344 0.03516,-0.04297 0.05859,-0.04687 0.02734,-0.0039 0.05469,0 0.07422,0.01953 0.0039,0.0039 0.0039,0.0039 0.0078,0.0039 0.14844,0.125 0.3125,0.10938 0.53125,-0.15625 0.01562,-0.01953 0.03906,-0.03125 0.0625,-0.03125 0.02344,0 0.04687,0.0078 0.06641,0.02344 0.21094,0.21094 0.33594,0.24219 0.39844,0.21094 0.07813,-0.03516 0.14453,-0.18359 0.10156,-0.56641 -0.0039,-0.02734 0.0039,-0.05078 0.02344,-0.07031 0.01953,-0.01953 0.04297,-0.02734 0.07031,-0.02734 0.35938,0.03125 0.54297,-0.125 0.57422,-0.5 0.0039,-0.02734 0.01563,-0.05078 0.03906,-0.06641 0.02344,-0.01563 0.05078,-0.01563 0.07422,-0.0078 0.32031,0.11719 0.51562,0.09375 0.62891,-0.0039 0.14062,-0.12109 0.19922,-0.33594 0.13281,-0.69141 -0.0078,-0.04297 0.01953,-0.08594 0.05859,-0.09766 0.3125,-0.09375 0.47656,-0.21875 0.53906,-0.35156 0.01953,-0.04297 0.03516,-0.08203 0.04687,-0.12109 0.06641,-0.22266 -0.01563,-0.36719 -0.30078,-0.44922 -0.03125,-0.0078 -0.05469,-0.03125 -0.05859,-0.0625 -0.0078,-0.03125 0.0039,-0.0625 0.02734,-0.08203 0.19531,-0.17188 0.27344,-0.3125 0.28516,-0.41016 z"
       id="path4"
       style="fill:#ee8fa1;fill-opacity:1" />
    <path
       d="m 46.809,50.969 c -0.16016,0.1875 -0.31641,0.35547 -0.47656,0.53125 0.125,-0.03125 0.25391,-0.0625 0.34766,-0.07422 0.10937,-0.0078 0.22266,0 0.33203,0.01172 -0.04297,-0.10547 -0.02734,-0.23438 0.02344,-0.375 -0.08203,-0.02734 -0.16016,-0.05859 -0.22656,-0.09375 z"
       id="path5"
       style="fill:#ee8fa1;fill-opacity:1" />
    <path
       d="m 54.07,47.242 c 0.02734,-0.01953 0.05859,-0.01953 0.08594,-0.0078 C 54.1286,47.21857 54.09735,47.22248 54.07,47.242 Z"
       id="path6"
       style="fill:#ee8fa1;fill-opacity:1" />
    <path
       d="m 54.195,47.352 c 0.01563,-0.02344 0.01563,-0.04687 0.0039,-0.07422 0.0078,0.02734 0.0078,0.05469 -0.0039,0.07422 z"
       id="path7"
       style="fill:#ee8fa1;fill-opacity:1" />
    <path
       d="m 59.316,42.262 c -0.02344,0.03516 -0.02344,0.07031 0.0078,0.09766 -0.02344,-0.02734 -0.02734,-0.07031 -0.0078,-0.10156 z"
       id="path8"
       style="fill:#ee8fa1;fill-opacity:1" />
    <path
       d="m 43.449,66.746 c 0.8125,-0.85938 1.5352,-1.9141 2.1602,-3.1602 1.8711,-4.3125 2.8125,-7.6484 2.8203,-10.008 0,-0.04297 0.03125,-0.07031 0.07031,-0.07813 -0.0078,-0.0039 -0.01563,-0.0078 -0.02344,-0.01563 -0.16016,-0.14844 -0.14062,-0.41406 -0.02344,-0.74219 -0.3125,-0.03516 -0.54688,-0.11328 -0.66797,-0.23828 -0.15234,-0.15625 -0.16016,-0.38281 -0.0625,-0.65234 -0.28516,-0.09375 -0.48438,-0.17969 -0.57812,-0.25 -0.01563,0.01172 -0.03516,0.01563 -0.05859,0.01563 -0.12891,-0.01953 -0.26172,-0.02344 -0.39063,-0.01172 -0.11719,0.01172 -0.26562,0.04297 -0.44531,0.09375 -0.02734,0.0078 -0.05078,-0.0039 -0.07422,-0.01953 -0.99609,1.0625 -1.9961,1.8594 -2.9922,2.3516 -1.293,0.76562 -3.5781,1.5312 -6.8555,2.293 -0.99609,0.26953 -1.9414,0.31641 -2.8438,0.17578 l -0.16797,0.10156 c -0.29297,0.26563 -0.46875,0.67578 -0.52734,1.2266 0.10156,1.2852 0.21094,2.0547 0.33594,2.3086 0.0078,0.01953 0.01172,0.04297 0.0039,0.0625 -0.19531,0.60938 -0.25781,1.082 -0.17969,1.4219 0.0039,0.01953 0,0.04297 -0.0078,0.05859 -0.25391,0.47266 -0.37891,0.91797 -0.38281,1.3359 0.10938,0.83984 0.20312,1.3047 0.28516,1.3867 0.01172,0.0039 0.02344,0.01172 0.03516,0.01953 0.0039,0.0039 0.0078,0.0078 0.0078,0.01172 0.04687,0.0625 0.09766,0.125 0.15625,0.17969 0.29297,0.29297 0.71484,0.48828 1.2656,0.59375 0.01953,0.0039 0.03125,0.01172 0.04687,0.02344 0.01563,0.01563 0.02734,0.04297 0.02344,0.07031 -0.02734,0.31641 -0.02344,0.50781 0.01563,0.57422 0.03906,0.02734 0.07813,0.05859 0.10938,0.09375 0.17188,0.17188 0.28906,0.42969 0.35156,0.78125 0.01563,0.01953 0.03125,0.03906 0.04687,0.05469 0.07031,0.07031 0.16406,0.12891 0.28516,0.17969 0.0078,0.0039 0.01172,0.0039 0.01563,0.0078 0.16797,0.12109 0.93359,0.20312 2.3047,0.24609 0.01563,0 0.03516,0.0078 0.04688,0.01563 0.58203,0.42969 1.1289,0.68359 1.6484,0.76172 h 0.0078 c 0.31641,0.07422 0.95312,0.05859 1.9062,-0.05469 1.3477,-0.49219 2.1211,-0.89453 2.3203,-1.207 0.0039,0 0.0078,-0.0039 0.01172,-0.0078 z m 0.31641,-11.699 0.0039,0.0039 c 0.03125,0.03516 0.02734,0.08984 -0.0078,0.12109 -0.48047,0.42969 -0.82422,0.75 -1.0273,0.95312 -0.16797,0.16406 -0.32031,0.31641 -0.46484,0.46094 l -1.0234,1.0469 c -0.17578,0.17969 -0.33984,0.34375 -0.49219,0.49609 -0.25391,0.25781 -0.77734,0.76562 -1.5703,1.5234 -0.27344,0.26172 -0.625,0.59375 -1.0625,0.99609 l -1.8984,1.7227 c -0.10938,0.10156 -0.21875,0.20312 -0.32422,0.30859 -0.07031,0.07031 -0.1875,0.18359 -0.34766,0.34766 -0.04297,0.04297 -0.08203,0.07813 -0.10938,0.10547 -0.03516,0.03125 -0.08594,0.03125 -0.12109,0 -0.03125,-0.03516 -0.03125,-0.08984 0.0039,-0.12109 0.02734,-0.02734 0.0625,-0.05859 0.10547,-0.10156 0.16016,-0.16406 0.27734,-0.28125 0.35156,-0.35156 0.10938,-0.10547 0.21875,-0.21094 0.32812,-0.3125 l 1.8984,-1.7227 c 0.4375,-0.40234 0.78906,-0.73438 1.0586,-0.99609 0.79297,-0.75781 1.3125,-1.2656 1.5664,-1.5234 0.15234,-0.15234 0.31641,-0.31641 0.49219,-0.49609 l 1.0234,-1.0469 c 0.14062,-0.14453 0.29687,-0.29688 0.46484,-0.46094 0.20312,-0.20703 0.55078,-0.52344 1.0352,-0.95703 0.03125,-0.03125 0.08203,-0.02734 0.11719,0.0039 z m -9.8984,4.9531 -0.0039,-0.0039 c -0.03125,-0.03516 -0.02734,-0.08984 0.0078,-0.12109 0.54688,-0.47656 1.0898,-0.90234 1.6289,-1.2852 0.22266,-0.15625 0.48438,-0.33594 0.78906,-0.53906 0.82813,-0.53516 1.4688,-0.95312 1.918,-1.2539 0.03516,-0.02344 0.07813,-0.01953 0.10938,0.01172 0.0039,0.0039 0.0078,0.0078 0.01172,0.01172 0.02734,0.03906 0.01563,0.09375 -0.02344,0.11719 -0.44922,0.30078 -1.0898,0.71875 -1.918,1.2539 -0.30078,0.19922 -0.5625,0.37891 -0.78125,0.53516 -0.53516,0.37891 -1.0742,0.80078 -1.6133,1.2734 -0.04297,0.03125 -0.09375,0.03125 -0.125,0 z m 0.57031,1.9648 c -0.03125,0.03516 -0.08594,0.03906 -0.12109,0.0078 l -0.0039,-0.0039 c -0.03125,-0.03125 -0.03516,-0.08203 -0.0039,-0.11719 0.42969,-0.48437 1.0547,-1.0664 1.8672,-1.7422 l 0.0039,-0.0039 c 0.04687,-0.04297 0.87891,-0.72656 2.5,-2.0547 1.3711,-1.168 2.1562,-1.8242 2.3477,-1.9648 1.0625,-0.86328 1.875,-1.4883 2.4297,-1.8789 0.03516,-0.02344 0.08203,-0.01953 0.10938,0.0078 0.0039,0.0039 0.0078,0.0078 0.0078,0.01172 0.02734,0.03906 0.01953,0.09375 -0.01953,0.12109 -0.55469,0.38672 -1.3594,1.0117 -2.4219,1.8711 l -0.0039,0.0039 c -0.18359,0.13672 -0.96484,0.78906 -2.3398,1.9609 -1.5898,1.3008 -2.4219,1.9844 -2.4922,2.0469 -0.0039,0.0039 -0.0039,0.0039 -0.0078,0.0078 -0.80469,0.66797 -1.4258,1.2422 -1.8516,1.7266 z m 0.71875,2.5547 c 0,0 -0.0039,0 -0.0039,-0.0039 -0.03125,-0.03125 -0.03516,-0.08594 -0.0039,-0.11719 0.25781,-0.28125 0.61328,-0.64844 1.0625,-1.0977 0.08984,-0.08984 0.22266,-0.21875 0.39062,-0.38281 0.98047,-0.94531 1.6797,-1.6211 2.0977,-2.0312 0.41016,-0.40234 0.75,-0.73828 1.0156,-1.0078 0.3125,-0.32031 0.69922,-0.72266 1.1602,-1.2109 0.26172,-0.27734 0.75,-0.80469 1.4648,-1.5742 0.11719,-0.12891 0.26562,-0.28516 0.44141,-0.46875 0.51953,-0.54297 0.95312,-0.98438 1.2969,-1.3281 0.53516,-0.53125 1.0352,-1.0156 1.5039,-1.4492 0.66406,-0.58984 1.0703,-0.93359 1.2188,-1.0352 0.03516,-0.02344 0.07813,-0.01953 0.10938,0.01172 0.0039,0.0039 0.0078,0.0078 0.01172,0.01172 0.02734,0.03906 0.01563,0.09375 -0.02344,0.11719 -0.14453,0.09766 -0.54297,0.4375 -1.2031,1.0195 -0.46875,0.43359 -0.96875,0.91797 -1.5,1.4453 -0.34375,0.33984 -0.77734,0.78125 -1.293,1.3242 -0.17578,0.18359 -0.32422,0.33984 -0.44141,0.46875 -0.71484,0.77344 -1.2031,1.2969 -1.4648,1.5781 -0.46094,0.48828 -0.84766,0.89453 -1.1641,1.2148 -0.26562,0.27344 -0.60547,0.60938 -1.0195,1.0117 -0.41797,0.41016 -1.1211,1.0898 -2.1016,2.0352 -0.16797,0.16406 -0.30078,0.29297 -0.39063,0.38281 -0.44922,0.44531 -0.80078,0.80859 -1.0586,1.0898 -0.01563,0.02734 -0.07031,0.03125 -0.10547,-0.0039 z m 2.3516,-0.20312 c -0.1875,0.1875 -0.35937,0.36328 -0.51172,0.52344 -0.23828,0.24609 -0.47656,0.51953 -0.71484,0.82812 -0.02734,0.03906 -0.08203,0.04297 -0.12109,0.01563 -0.0039,-0.0039 -0.0039,-0.0039 -0.0078,-0.0078 -0.03125,-0.03125 -0.03516,-0.07813 -0.0078,-0.11328 0.24219,-0.30859 0.48438,-0.58984 0.72656,-0.83984 0.15625,-0.16406 0.32812,-0.33984 0.51562,-0.52734 0.78906,-0.78125 1.2656,-1.2578 1.4258,-1.4219 0.21094,-0.21094 0.46094,-0.46484 0.74609,-0.76172 0.82031,-0.85156 1.5898,-1.6758 2.3086,-2.4648 0.5,-0.54688 1.1719,-1.3047 2.0195,-2.2734 1.3906,-1.6211 2.3047,-2.6797 2.7461,-3.168 0.3125,-0.36719 0.53125,-0.63672 0.66406,-0.8125 0.02734,-0.03906 0.08203,-0.04687 0.12109,-0.01563 0.0039,0.0039 0.0078,0.0039 0.0078,0.0078 0.03125,0.03125 0.03516,0.07813 0.0078,0.11328 -0.13281,0.17578 -0.35547,0.44922 -0.66797,0.82031 v 0.0039 c -0.44141,0.48828 -1.3555,1.543 -2.7461,3.1641 -0.84766,0.97266 -1.5195,1.7305 -2.0234,2.2773 -0.71875,0.78906 -1.4883,1.6133 -2.3125,2.4688 -0.28906,0.29688 -0.53516,0.55078 -0.74609,0.76563 -0.16406,0.16016 -0.64062,0.63672 -1.4297,1.418 z m 0.94141,1.0117 c -0.0039,0.0039 -0.0039,0.0078 -0.0078,0.0078 -0.20312,0.23437 -0.37109,0.44922 -0.50391,0.64453 -0.02734,0.03906 -0.08203,0.05078 -0.12109,0.02344 l -0.01172,-0.01172 c -0.02734,-0.02734 -0.03516,-0.07422 -0.01172,-0.10938 0.13672,-0.19922 0.30469,-0.41797 0.50781,-0.65234 0,-0.0039 0.0039,-0.0039 0.0039,-0.0078 0.04687,-0.0625 0.69922,-0.78125 1.9609,-2.1562 0.17969,-0.19922 0.375,-0.41797 0.57812,-0.65234 l 2.8789,-3.3438 c 0.14062,-0.16406 0.30078,-0.35547 0.48438,-0.57812 0.85156,-1.0352 1.7617,-2.2656 2.7266,-3.6953 0.02734,-0.03906 0.07813,-0.05078 0.12109,-0.02344 l 0.01172,0.01172 c 0.02734,0.02734 0.03516,0.07422 0.01172,0.10938 -0.96875,1.4336 -1.8828,2.668 -2.7344,3.707 -0.18359,0.22266 -0.34766,0.41797 -0.48828,0.58203 l -2.875,3.3477 c -0.20703,0.23438 -0.40234,0.45312 -0.58203,0.65234 -1.2539,1.3711 -1.9023,2.082 -1.9492,2.1445 z m 1.8359,1.7188 c -0.03516,0.03516 -0.08594,0.03516 -0.12109,0 -0.03516,-0.03516 -0.03516,-0.08594 0,-0.12109 0.88672,-0.89453 2.1641,-2.7461 3.8359,-5.5508 2.4062,-4.2305 3.6953,-6.8047 3.8594,-7.7227 0.0078,-0.04687 0.05469,-0.07813 0.10156,-0.07031 0.04687,0.0078 0.07812,0.05469 0.07031,0.10156 -0.16797,0.9375 -1.4648,3.5312 -3.8828,7.7773 -1.6797,2.8203 -2.9648,4.6836 -3.8633,5.5859 z m 2.0625,-1.5117 -0.0078,-0.0078 c -0.03125,-0.03125 -0.03516,-0.07813 -0.0078,-0.11328 0.81641,-1.0312 1.8047,-2.7188 2.9609,-5.0625 0.01953,-0.04297 0.07422,-0.05859 0.11328,-0.03906 0.0078,0.0039 0.01563,0.01172 0.02344,0.01563 0.02344,0.02344 0.03125,0.06641 0.01562,0.09766 -1.1602,2.3555 -2.1562,4.0508 -2.9805,5.0938 -0.02344,0.03906 -0.07813,0.04297 -0.11719,0.01563 z"
       id="path9"
       style="fill:#ee8fa1;fill-opacity:1" />
    <path
       d="m 55.734,65.754 -3.332,-7.7812 v -0.0039 c -0.40625,-1.0586 -0.53125,-2.2852 -0.57031,-3.2773 l -0.0039,-0.0039 c -0.04687,-0.11328 -0.15234,-0.28516 -0.32031,-0.51562 -0.07422,-0.10547 -0.14062,-0.18359 -0.19922,-0.24219 -0.02734,-0.02734 -0.05469,-0.05078 -0.08203,-0.07031 -0.0039,-0.0039 -0.0078,-0.0078 -0.01172,-0.0078 -0.0078,-0.0078 0,-0.01953 -0.0039,-0.03125 -0.03906,-0.0078 -0.08203,-0.03906 -0.12109,-0.0625 -0.125,0.22266 -0.27734,0.34766 -0.46875,0.34375 -0.14844,-0.0039 -0.25391,-0.12891 -0.34375,-0.30859 -0.40625,0.08984 -0.72656,0.05859 -0.91406,-0.13281 -0.0039,0.01953 0.01172,0.04297 -0.0078,0.05859 -0.07031,0.05469 -0.13672,0.11328 -0.19531,0.17188 -0.05469,0.05469 -0.13281,0.13672 -0.23047,0.24609 -0.05469,0.0625 -0.11719,0.13672 -0.18359,0.22266 -0.05469,0.07422 -0.09375,0.12891 -0.11328,0.16797 -0.01562,0.03125 -0.04687,0.03906 -0.08203,0.03906 -0.22266,2.293 -1.1484,5.3203 -2.7812,9.0859 l -0.0039,0.0039 c -0.63672,1.2617 -1.3633,2.3281 -2.1875,3.2031 -0.02734,0.04297 -0.09375,0.09375 -0.14062,0.13672 -0.0039,0.0078 -0.0078,0.02344 -0.01172,0.03125 -0.0078,0.0078 -0.01953,0.01563 -0.02734,0.02344 0.0078,-0.0078 0.01953,-0.01563 0.02734,-0.02344 -0.10156,0.33203 -0.14062,0.53125 -0.11719,0.59375 0,0.0039 0.0039,0.0078 0.0039,0.01172 0.21875,0.88281 0.39062,1.3828 0.50391,1.4961 0.01172,0.01172 0.01953,0.01563 0.03125,0.02344 0.01172,0 0.02344,0.0039 0.03516,0.01172 0.27344,0.16406 0.53125,0.36719 0.76953,0.60156 0.0625,0.0625 0.125,0.12891 0.18359,0.19531 0.08594,0.0625 0.17578,0.11328 0.27734,0.15234 1.1992,0.30859 1.9336,0.44141 2.2148,0.39844 0.02734,-0.0039 0.05469,0.0039 0.07422,0.02344 0.01172,0.01172 0.01953,0.02734 0.02344,0.04687 0.09766,0.53125 0.25,0.90234 0.46094,1.1133 0.03516,0.03516 0.07031,0.06641 0.10938,0.08984 0.0039,0.0039 0.0078,0.0078 0.01172,0.0078 0.11328,0.10938 0.39453,0.19141 0.84375,0.25 0.01563,0 0.02734,0.0078 0.03906,0.01563 0.28516,0.21094 0.45703,0.32031 0.51562,0.32812 0.0039,0 0.01172,0.0039 0.01563,0.0039 0.10938,0.03906 0.23438,0.0625 0.38672,0.06641 0.28906,-0.0039 0.57031,-0.06641 0.84766,-0.18359 h 0.0039 c 0.22656,-0.08203 0.49609,-0.26563 0.81641,-0.55078 0.01172,-0.01172 0.02734,-0.01953 0.04297,-0.01953 0.1875,-0.02734 0.58594,-0.15234 1.1875,-0.36719 l 1.9531,-0.98047 c 0.76953,-0.85938 1.2617,-2.0391 1.4805,-3.5312 v 0.01172 l 0.0039,-0.0039 0.16406,0.01953 0.0039,-0.02344 0.0039,-0.03906 0.01172,-0.08984 -0.17969,-0.14062 C 56.03095,66.37523 55.89423,66.1057 55.73408,65.75413 Z m -9.4453,3.5352 c 0.01172,0.03906 -0.0078,0.08203 -0.04687,0.09766 -0.03516,0.01563 -0.07422,0.0078 -0.09766,-0.01563 -0.0078,-0.0078 -0.01172,-0.01563 -0.01563,-0.02344 -0.0039,-0.01172 -0.0078,-0.02344 -0.01172,-0.03906 -0.02344,-0.21875 0.48437,-2.9961 1.5195,-8.3242 0.0078,-0.04687 0.05469,-0.07813 0.10156,-0.06641 0.01563,0.0039 0.03125,0.01172 0.04297,0.02344 0.01953,0.01953 0.03125,0.04687 0.02344,0.07813 -1.0273,5.2891 -1.5352,8.0469 -1.5156,8.2695 z m 1.6445,0.60547 c -0.0039,0.04687 -0.04297,0.08203 -0.08984,0.08203 -0.02344,0 -0.04297,-0.01172 -0.05469,-0.02344 -0.01562,-0.01563 -0.02734,-0.03906 -0.02344,-0.06641 0.02344,-0.41016 0.33984,-2.5703 0.94531,-6.4805 0.0078,-0.04687 0.05078,-0.07813 0.09766,-0.07031 0.01953,0.0039 0.03516,0.01172 0.04687,0.02344 0.01953,0.01953 0.02734,0.04687 0.02344,0.07422 -0.60938,3.9023 -0.92188,6.0547 -0.94531,6.4609 z m 0.97266,-11.215 c -0.05859,0.50781 -0.12891,1.4141 -0.21094,2.7227 -0.0039,0.04687 -0.04297,0.08203 -0.08984,0.08203 -0.02344,0 -0.03906,-0.01172 -0.05469,-0.02344 -0.01563,-0.01563 -0.02734,-0.03906 -0.02344,-0.06641 0.08203,-1.3086 0.15234,-2.2188 0.21094,-2.7305 0.15625,-1.6914 0.28516,-2.7695 0.38672,-3.2422 0.01172,-0.04687 0.05469,-0.07422 0.10156,-0.06641 0.01563,0.0039 0.03125,0.01172 0.04297,0.02344 0.01953,0.01953 0.03125,0.05078 0.02344,0.07813 -0.10547,0.46484 -0.23047,1.543 -0.38672,3.2227 z m 0.69141,10.266 c -0.0039,0.04688 -0.04687,0.08203 -0.09375,0.07422 -0.01953,-0.0039 -0.03906,-0.01172 -0.05078,-0.02344 -0.01953,-0.01953 -0.02734,-0.04297 -0.02344,-0.07031 0.30078,-2.457 0.49609,-7.2695 0.58984,-14.434 0,-0.04688 0.03906,-0.08594 0.08594,-0.08594 0.02344,0 0.04297,0.01172 0.05859,0.02344 0.01563,0.01562 0.02734,0.03906 0.02344,0.0625 -0.08984,7.1719 -0.28906,11.988 -0.58984,14.453 z m 1.8477,1.6211 c -0.0039,0.04687 -0.04297,0.08203 -0.09375,0.07813 -0.01953,0 -0.03906,-0.01172 -0.05469,-0.02344 -0.01563,-0.01563 -0.02734,-0.04297 -0.02344,-0.06641 0.28125,-3.7773 0.38672,-6.168 0.30859,-7.168 v -0.0039 c -0.05859,-1.6367 -0.36719,-4.4922 -0.92969,-8.5625 -0.0078,-0.04687 0.02734,-0.08984 0.07422,-0.09766 0.02734,-0.0039 0.05469,0.0078 0.07422,0.02344 0.01172,0.01172 0.02344,0.03125 0.02344,0.05078 0.5625,4.0781 0.87109,6.9375 0.92969,8.582 0.07813,1.0078 -0.02344,3.4062 -0.30859,7.1875 z m 2.0703,-0.49219 c -0.0078,0.04687 -0.05078,0.07813 -0.09766,0.07031 -0.01953,-0.0039 -0.03516,-0.01172 -0.04687,-0.02344 -0.01953,-0.01953 -0.02734,-0.04687 -0.02344,-0.07422 0.16406,-0.94922 0.20703,-2.5 0.12891,-4.6523 -0.05469,-0.90234 -0.30469,-2.8008 -0.75391,-5.6914 -0.0078,-0.04687 0.02344,-0.08984 0.07031,-0.09766 0.02734,-0.0039 0.05469,0.0039 0.07422,0.02344 0.01172,0.01172 0.01953,0.02734 0.02344,0.04687 0.44922,2.8984 0.70312,4.8008 0.75781,5.707 v 0.0039 c 0.07422,2.1602 0.03125,3.7227 -0.13281,4.6875 z m 1.3555,-1.6953 c -0.02344,0 -0.04687,-0.0078 -0.0625,-0.02344 -0.01563,-0.01563 -0.02344,-0.03516 -0.02344,-0.05859 -0.02344,-0.76562 -0.07031,-1.4805 -0.14062,-2.1445 -0.0039,-0.04687 0.03125,-0.08984 0.07813,-0.09375 0.02734,-0.0039 0.05078,0.0078 0.07031,0.02344 0.01172,0.01172 0.02344,0.03125 0.02344,0.05078 0.06641,0.66797 0.11328,1.3867 0.14062,2.1562 0,0.04688 -0.03906,0.08594 -0.08594,0.08984 z"
       id="path10"
       style="fill:#ee8fa1;fill-opacity:1" />
    <path
       d="m 47.336,48.23 c 0.04687,-0.04297 0.08984,-0.08594 0.14844,-0.125 0,-0.07813 0.0078,-0.14453 0.01563,-0.21094 -0.19531,-0.0039 -0.39453,-0.02344 -0.59375,-0.03906 0.01563,0.01172 0.02734,0.01563 0.04297,0.03125 0.15234,0.12891 0.25391,0.21875 0.30469,0.26562 0.02344,0.01953 0.04687,0.04297 0.0625,0.05859 0.01172,0.0078 0.01172,0.01172 0.01953,0.01953 z"
       id="path11"
       style="fill:#ee8fa1;fill-opacity:1" />
    <path
       d="m 51.719,53.598 c -0.09375,0.10156 -0.19531,0.17578 -0.29297,0.20703 0.06641,0.06641 0.14062,0.15625 0.21875,0.26562 0.07031,0.09766 0.125,0.17578 0.17578,0.25391 -0.0039,-0.19922 -0.0078,-0.39062 -0.0078,-0.55859 0,-0.02734 0.01563,-0.05078 0.03906,-0.06641 -0.04687,-0.02344 -0.08984,-0.05859 -0.13281,-0.10156 z"
       id="path12"
       style="fill:#ee8fa1;fill-opacity:1" />
    <path
       d="m 59.355,42.387 c 0.02734,0.01172 0.05078,0.01172 0.07422,-0.0039 -0.02344,0.01172 -0.05078,0.01172 -0.07422,0.0039 z"
       id="path13"
       style="fill:#ee8fa1;fill-opacity:1" />
    <path
       d="m 49.715,46.281 c 0.0039,0.0078 -0.0039,0.01563 0,0.02344 l -0.125,0.09375 c -0.11328,-0.125 -0.23438,-0.27734 -0.35156,-0.42578 0,0.04687 0.0039,0.09375 0,0.14453 -0.0078,0.13281 -0.01563,0.21094 -0.01953,0.22656 v 0.0078 c -0.0039,0.03125 -0.01172,0.06641 -0.02344,0.10156 0.13672,-0.02734 0.28516,-0.02734 0.44531,-0.0078 l 0.04297,0.04688 v 0.02344 l 0.17578,0.04687 0.05469,-0.10547 -0.06641,-0.0625 c 0.12109,-0.07422 0.23828,-0.125 0.34766,-0.14062 0.22656,-0.02734 0.47266,0.01953 0.72656,0.14062 0.25,-0.14453 0.49219,-0.19922 0.73047,-0.14844 0.27734,0.05469 0.50781,0.23828 0.69531,0.51953 0.31641,-0.06641 0.55859,-0.07031 0.70703,0 0.20312,0.09766 0.27344,0.32031 0.26562,0.61719 0.33984,0.16016 0.5625,0.32813 0.64453,0.51563 0.08203,0.18359 0.0625,0.39062 -0.02344,0.60937 0.26953,0.03906 0.48047,0.15234 0.55859,0.38281 0.08594,0.24219 -0.0078,0.46875 -0.21094,0.67188 0.04688,0.03516 0.08984,0.06641 0.125,0.10547 0.10938,-0.125 0.22266,-0.23047 0.34375,-0.3125 0.12109,-0.08203 0.21875,-0.12891 0.32422,-0.1875 -0.14844,0.01172 -0.3125,0.03906 -0.45312,0.04297 -0.02344,0 -0.04687,-0.0078 -0.0625,-0.02344 -0.01563,-0.01563 -0.02344,-0.03516 -0.02344,-0.05859 0,-0.04687 0.03516,-0.08594 0.08203,-0.08984 1.3242,-0.04687 2.9922,-0.43359 5,-1.1602 1.0508,-0.39453 2.8633,-1.1875 5.4141,-2.3711 0.0078,-0.03125 0.03125,-0.0625 0.07031,-0.0625 h 0.06641 c 0.10547,-0.04687 0.20312,-0.09375 0.30859,-0.14453 0.60547,-0.30078 1.0742,-0.59375 1.3984,-0.87891 0.23828,-0.20312 0.38672,-0.42578 0.4375,-0.66406 0,-0.0039 0,-0.0039 0.0039,-0.0078 0.11328,-0.34375 0.05859,-0.92188 -0.16406,-1.7422 -0.0078,-0.02734 0,-0.05469 0.01563,-0.07812 0.33594,-0.41797 0.49219,-0.66406 0.46094,-0.74609 0,-0.0039 0,-0.0039 -0.0039,-0.0078 l -0.33594,-1.4531 c -0.0078,-0.02734 0,-0.05469 0.01953,-0.07422 0.48438,-0.58203 0.71875,-0.92188 0.70312,-1.0273 -0.0078,-0.02734 -0.0039,-0.05469 0.01172,-0.07422 0,-0.0039 -0.0039,-0.0078 -0.0039,-0.01172 -0.02734,-0.09766 -0.13281,-0.28516 -0.30859,-0.56641 -0.0078,-0.01563 -0.01172,-0.03125 -0.01172,-0.04687 0,0 0,-0.0039 -0.0039,-0.0039 -0.04297,-0.04297 -0.20312,-0.08203 -0.47656,-0.11719 -0.23437,-0.03125 -0.55078,-0.05078 -0.9375,-0.0625 -0.02344,0 -0.04297,-0.01172 -0.05859,-0.02344 -0.01563,-0.01563 -0.02734,-0.03906 -0.02344,-0.0625 0.01172,-0.52344 -0.07422,-0.88281 -0.25781,-1.0664 -0.01563,-0.01563 -0.02734,-0.02734 -0.04297,-0.03906 l -0.0039,-0.0039 c -0.44141,-0.42188 -0.70703,-0.63281 -0.79688,-0.63281 -0.02734,0.0078 -0.05469,0 -0.07422,-0.01563 -0.07813,-0.05469 -0.45312,-0.04687 -1.1328,0.01953 -0.02734,0.0039 -0.05078,-0.0078 -0.07031,-0.02344 -0.0078,-0.0078 -0.01563,-0.01953 -0.01953,-0.03125 -0.16406,-0.4375 -0.3125,-0.72656 -0.44531,-0.85938 -0.06641,-0.06641 -0.125,-0.09375 -0.18359,-0.08594 -0.01563,0.0039 -0.02734,0 -0.04297,-0.0039 -0.17969,-0.06641 -0.74219,0.01172 -1.6875,0.23438 -0.01172,0.0039 -0.02344,0.0039 -0.03516,0 -1.0195,-0.21094 -1.6328,-0.28125 -1.8398,-0.21484 l -2.3047,0.70703 c -0.86328,0.64062 -1.8398,1.8867 -2.9258,3.7461 -0.19141,0.41797 -0.35547,0.875 -0.49609,1.3711 -0.58203,2.3398 -1.0859,4.2461 -1.5078,5.7148 -0.01172,0.04687 -0.0625,0.07031 -0.10547,0.05859 -0.01563,-0.0039 -0.02734,-0.01172 -0.03516,-0.02344 -0.01953,-0.01953 -0.03125,-0.05469 -0.02344,-0.08594 0.42188,-1.4688 0.92578,-3.3711 1.5078,-5.7109 v -0.0039 c 0.14062,-0.50391 0.30859,-0.97266 0.50781,-1.3984 0,-0.0039 0.0039,-0.0039 0.0039,-0.0078 1.1016,-1.8906 2.0977,-3.1602 2.9844,-3.8125 0.0078,-0.0039 0.01562,-0.01172 0.02734,-0.01172 l 1.3984,-0.42969 c 0.0039,-0.0078 -0.0078,-0.01563 -0.0039,-0.01953 0.30078,-0.50391 0.50781,-1.125 0.43359,-1.4531 l -1.1016,-2.0469 c -0.24609,-0.37891 -0.67578,-0.69141 -1.3047,-0.94141 -0.01563,-0.0078 -0.03125,-0.01953 -0.03906,-0.03516 -0.27734,-0.43359 -0.44922,-0.64844 -0.52734,-0.69141 -0.0078,-0.0039 -0.01563,-0.01172 -0.02344,-0.01563 -0.03516,-0.03906 -0.20703,-0.13672 -0.55078,-0.30469 -0.03125,-0.01563 -0.04687,-0.04297 -0.04687,-0.07813 0.0039,-0.59375 -0.42969,-1.1445 -1.3984,-1.5547 -0.34766,-0.14844 -0.97656,-0.04687 -1.8867,0.27734 -0.03125,0.01172 -0.0625,0.0039 -0.08594,-0.01563 -0.52344,-0.46484 -0.80469,-0.63672 -0.88672,-0.625 h -0.0078 l -1.6211,0.01563 c -0.09375,0.03516 -0.19922,0.09375 -0.27734,0.20312 -0.46094,0.64453 -0.76172,1.0234 -0.90234,1.1289 -0.12109,0.08984 -0.21875,0.16797 -0.29297,0.23047 -0.07031,0.05859 -0.13672,0.11328 -0.17969,0.13281 -0.0078,0.0039 -0.01563,0.0078 -0.02344,0.0078 -0.53906,0.125 -0.93359,0.28516 -1.1914,0.48438 l -1.5039,1.5273 c -0.89453,1.1797 -1.1523,2.7812 -0.48047,4.7383 1.8203,5.3477 3.5898,8.7383 5.0117,10.273 z m 16.492,-4.1875 c 0.03125,0.03125 0.03516,0.08594 0,0.12109 -0.35156,0.375 -1.0117,0.875 -1.9766,1.5 -3.1445,2.0508 -5.0195,3.2305 -5.6211,3.5391 -1.3359,0.78906 -2.5547,1.2148 -3.6484,1.2773 -0.02734,0 -0.05078,-0.0078 -0.06641,-0.02344 -0.01563,-0.01562 -0.02344,-0.03516 -0.02344,-0.05469 -0.0039,-0.04687 0.03516,-0.08594 0.08203,-0.08984 1.0703,-0.0625 2.2617,-0.48047 3.5781,-1.2578 l 0.0039,-0.0039 c 0.59375,-0.30469 2.4648,-1.4844 5.6055,-3.5312 0.95312,-0.61719 1.6016,-1.1094 1.9453,-1.4727 0.03125,-0.03125 0.08594,-0.03516 0.12109,-0.0039 z m -9.6289,4.6445 c -0.02734,-0.03906 -0.01563,-0.09375 0.02344,-0.11719 0.73438,-0.49609 1.5859,-1.125 2.5508,-1.8867 l 2.4297,-1.9688 c 0.09375,-0.07422 0.25781,-0.21094 0.5,-0.41406 0.38281,-0.31641 0.70312,-0.60937 0.96094,-0.87891 0.03125,-0.03516 0.08594,-0.03516 0.12109,-0.0039 0.03125,0.03125 0.03516,0.08594 0,0.12109 -0.26562,0.27344 -0.58984,0.57031 -0.97656,0.89062 -0.24219,0.20312 -0.41016,0.33984 -0.5,0.41406 l -2.4297,1.9688 c -0.96875,0.76562 -1.8242,1.3984 -2.5625,1.8945 -0.03516,0.02344 -0.08203,0.01953 -0.10937,-0.01172 -0.0039,0.0039 -0.0078,-0.0039 -0.0078,-0.0078 z m 8.7773,-7.8828 c 0.28516,-0.23438 0.50391,-0.43359 0.66016,-0.58594 0.03516,-0.03516 0.08594,-0.03516 0.12109,0 0.03516,0.03516 0.03516,0.08984 0,0.12109 -0.16016,0.16016 -0.38281,0.35938 -0.67188,0.59766 l -4.2695,3.5117 -4.4375,3.7344 c -0.80078,0.66797 -1.4648,1.1719 -1.9922,1.5117 -0.03516,0.02344 -0.07813,0.01563 -0.10547,-0.01172 -0.0039,-0.0039 -0.0078,-0.0078 -0.01172,-0.01563 -0.02734,-0.03906 -0.01563,-0.09375 0.02734,-0.11719 0.52344,-0.33594 1.1797,-0.83594 1.9766,-1.5 l 4.4375,-3.7344 z m -1.6016,-0.58594 c 0.34375,-0.30859 0.53516,-0.49609 0.57422,-0.5625 0.02344,-0.04297 0.07422,-0.05469 0.11719,-0.03125 0.0078,0.0039 0.01172,0.0078 0.01953,0.01563 0.02734,0.02734 0.03516,0.07031 0.01563,0.10156 -0.04687,0.08203 -0.25,0.28516 -0.60547,0.60547 l -1.4727,1.3086 c -1.9062,1.7109 -2.8867,2.5977 -2.9414,2.6562 -0.0039,0.0078 -0.01172,0.01172 -0.01953,0.01563 -0.07813,0.07031 -0.74219,0.70312 -1.9883,1.8945 -0.71094,0.66406 -1.5742,1.4805 -2.5898,2.4453 -0.40234,0.38281 -0.62109,0.59766 -0.66797,0.64062 -0.0039,0.0078 -0.01172,0.01563 -0.02344,0.02344 -0.03906,0.02734 -0.07813,0.02734 -0.10938,-0.0078 v -0.0039 c -0.03516,-0.03906 -0.03516,-0.07813 0,-0.11719 0.02734,-0.03125 0.25391,-0.25 0.68359,-0.65625 1.0156,-0.96875 1.8789,-1.7852 2.5898,-2.4492 1.2852,-1.2266 1.9492,-1.8633 2.0039,-1.9062 0.08984,-0.08984 1.0742,-0.98047 2.9453,-2.6641 z m -0.86328,-1.9062 c 0.02734,-0.03906 0.08203,-0.04687 0.12109,-0.01953 l 0.01172,0.01172 c 0.02734,0.02734 0.03516,0.07422 0.0078,0.10938 -0.24609,0.35156 -1.0312,1.293 -2.3594,2.8164 l -1.5586,1.7617 c -1.2617,1.4531 -1.9258,2.2109 -1.9961,2.2812 -0.72266,0.80078 -1.2148,1.3281 -1.4805,1.5781 -0.03516,0.03125 -0.08594,0.03125 -0.12109,0 v -0.0039 c -0.03125,-0.03516 -0.03125,-0.08984 0.0039,-0.12109 0.26172,-0.24609 0.75391,-0.76953 1.4766,-1.5703 l 0.0039,-0.0039 c 0.06641,-0.06641 0.73047,-0.82422 1.9883,-2.2734 l 1.5586,-1.7617 c 1.3203,-1.5234 2.1016,-2.457 2.3438,-2.8047 z m -2.9023,-0.53125 c 0.02734,-0.03906 0.08203,-0.04297 0.12109,-0.01563 l 0.0078,0.0078 c 0.03125,0.03125 0.03516,0.07813 0.0078,0.11328 -1.2461,1.6133 -2.2852,3.1406 -3.1133,4.5781 -1.4414,2.5781 -2.5,4.6602 -3.1719,6.25 -0.01953,0.04297 -0.07031,0.0625 -0.11328,0.04687 -0.01172,-0.0039 -0.01953,-0.01172 -0.02734,-0.01953 -0.02344,-0.02344 -0.03125,-0.0625 -0.01953,-0.09375 0.67578,-1.5938 1.7383,-3.6836 3.1797,-6.2695 0.83594,-1.4453 1.8789,-2.9766 3.1289,-4.5977 z m -4.6992,3.9297 c 0.73047,-1.6328 1.4141,-2.832 2.0547,-3.5977 0.03125,-0.03516 0.08594,-0.04297 0.12109,-0.01172 0.0039,0 0.0039,0.0039 0.0078,0.0039 0.03125,0.03125 0.03516,0.08203 0.0039,0.11719 -0.62891,0.75781 -1.3047,1.9414 -2.0273,3.5586 l -0.0039,0.0039 c -0.30469,0.58984 -0.96484,2.3398 -1.9805,5.2461 -0.01563,0.04297 -0.06641,0.07031 -0.10938,0.05469 -0.01172,-0.0039 -0.02344,-0.01172 -0.03125,-0.01953 -0.02344,-0.02344 -0.03125,-0.05859 -0.01953,-0.08984 1.0117,-2.9062 1.6758,-4.6641 1.9844,-5.2656 z m 0.91016,-7.5859 c 0,-0.04687 0.03516,-0.08594 0.08203,-0.08984 0.02344,0 0.04687,0.0078 0.0625,0.02344 0.01563,0.01563 0.02344,0.03516 0.02344,0.05859 0.0078,0.21094 -0.04297,0.98438 -0.15234,2.3242 -0.0039,0.04687 -0.04687,0.08203 -0.09375,0.07812 -0.01953,0 -0.03906,-0.01172 -0.05469,-0.02344 -0.01563,-0.01563 -0.02734,-0.04297 -0.02344,-0.06641 0.10938,-1.3359 0.16016,-2.1016 0.15625,-2.3047 z m -1.6289,-2.1523 c -0.01172,-0.04688 0.01563,-0.09375 0.05859,-0.10547 0.03125,-0.0078 0.0625,0 0.08203,0.02344 0.01172,0.01172 0.01953,0.02344 0.02344,0.03906 0.13672,0.5 0.03906,2.668 -0.30469,6.5078 -0.0039,0.04687 -0.04688,0.08203 -0.09375,0.07813 -0.01953,0 -0.03906,-0.01172 -0.05469,-0.02344 -0.01563,-0.01563 -0.02734,-0.04297 -0.02344,-0.06641 0.34375,-3.8281 0.44531,-5.9766 0.3125,-6.4531 z m -1.8789,-0.76953 c -0.01172,-0.04687 0.01953,-0.09375 0.06641,-0.10156 0.03125,-0.0078 0.05859,0.0039 0.07813,0.02344 0.01172,0.01172 0.01953,0.02344 0.02344,0.04297 0.16797,0.74219 0.21484,2.293 0.14453,4.6523 -0.07422,4 -0.27344,7.3242 -0.60156,9.9727 -0.0039,0.04687 -0.04687,0.08203 -0.09766,0.07422 -0.01953,-0.0039 -0.03516,-0.01172 -0.05078,-0.02344 -0.01953,-0.01953 -0.02734,-0.04297 -0.02344,-0.07031 0.32812,-2.6445 0.52734,-5.9609 0.60156,-9.957 0.07031,-2.3477 0.02344,-3.8828 -0.14062,-4.6133 z m -2.2422,-0.59766 c 0.02344,0 0.04687,0.0078 0.0625,0.02344 0.01563,0.01562 0.02344,0.03516 0.02344,0.05859 0.09375,3.3008 0.33594,7.4688 0.73047,12.508 v 0.0039 c 0.08203,2.125 0.08984,3.6094 0.01563,4.4492 -0.0039,0.04687 -0.04687,0.08203 -0.09375,0.07813 -0.01953,0 -0.03906,-0.01172 -0.05469,-0.02344 -0.01562,-0.01563 -0.02734,-0.04297 -0.02344,-0.06641 0.07422,-0.83594 0.07031,-2.3125 -0.01563,-4.4258 -0.39453,-5.0391 -0.64062,-9.2109 -0.73047,-12.516 0,-0.05078 0.03906,-0.08984 0.08594,-0.08984 z m -1.3125,1.0859 c 0.0078,-0.04688 0.05078,-0.08203 0.09766,-0.07422 0.01953,0.0039 0.03516,0.01172 0.05078,0.02344 0.01953,0.01953 0.02734,0.04297 0.02344,0.07031 -0.34766,2.75 -0.0078,7.8242 1.0117,15.227 0.0078,0.04687 -0.02734,0.08984 -0.07422,0.09766 -0.02734,0.0039 -0.05469,-0.0078 -0.07422,-0.02344 -0.01172,-0.01172 -0.02344,-0.03125 -0.02344,-0.05078 -1.0234,-7.4141 -1.3594,-12.508 -1.0117,-15.27 z m -1.4844,0.90234 c 0,-0.04687 0.04297,-0.08594 0.08984,-0.08203 0.02344,0 0.04297,0.01172 0.05859,0.02344 0.01563,0.01562 0.02734,0.03906 0.02344,0.0625 -0.13281,3.4766 0.37891,7.625 1.5352,12.445 0.01172,0.04687 -0.01563,0.09375 -0.0625,0.10547 -0.03125,0.0078 -0.05859,-0.0039 -0.08203,-0.02344 -0.01172,-0.01172 -0.01953,-0.02344 -0.02344,-0.03906 -1.1602,-4.8359 -1.6719,-9 -1.5391,-12.492 z m -1.2188,1.0117 c 0.02344,0 0.04687,0.0078 0.0625,0.02344 0.01563,0.01562 0.02344,0.03516 0.02344,0.05859 0.04687,2.6133 0.53906,5.8047 1.4766,9.5742 0.01172,0.04687 -0.01563,0.09375 -0.0625,0.10547 -0.03125,0.0078 -0.0625,-0.0039 -0.08203,-0.02344 -0.01172,-0.01172 -0.01953,-0.02344 -0.02344,-0.03906 -0.94531,-3.7812 -1.4375,-6.9883 -1.4844,-9.6133 0.0078,-0.04688 0.04297,-0.08594 0.08984,-0.08594 z m -1.1367,2.4141 c 0.02344,0 0.04297,0.01172 0.05469,0.02344 0.01563,0.01563 0.02734,0.03906 0.02344,0.06641 -0.01172,0.22266 0.08594,0.85938 0.29297,1.9102 0.0078,0.04688 -0.01953,0.08984 -0.06641,0.10156 -0.02734,0.0039 -0.05859,-0.0039 -0.07812,-0.02344 -0.01172,-0.01172 -0.01953,-0.02734 -0.02344,-0.04297 -0.21094,-1.0625 -0.30859,-1.7148 -0.29688,-1.9531 0.0078,-0.05078 0.04687,-0.08594 0.09375,-0.08203 z"
       id="path14"
       style="fill:#ee8fa1;fill-opacity:1" />
    <path
       d="m 54.016,51.926 c 0.0078,0.25781 -0.05859,0.46094 -0.21875,0.59766 -0.17188,0.14453 -0.41797,0.15234 -0.70703,0.0625 -0.0625,0.35937 -0.28125,0.54687 -0.64062,0.55078 0.02344,0.31641 -0.01563,0.57031 -0.20703,0.65234 -0.08203,0.03516 -0.17188,0.02734 -0.26172,-0.01172 0.0039,1.0547 0.04687,2.7422 0.57812,4.125 l 3.332,7.7773 c 0.30078,0.66406 0.51172,0.98437 0.60547,1.0469 0.05859,0.03906 0.10938,0.07813 0.15625,0.11328 0.08203,0.0625 0.14844,0.10938 0.21484,0.14453 l 1.6094,0.76172 c 0.20703,0.05469 0.56641,0 1.0977,-0.19922 0.0078,-0.0039 0.01563,-0.0039 0.02344,-0.0039 0.45703,-0.02734 0.75391,-0.03906 0.88672,-0.03125 0.01172,0 0.02344,0.0039 0.03516,0.0078 0.19531,0.09766 1.1094,0.30859 2.7852,0.48047 0.30859,0.03125 0.55469,-0.33203 0.64844,-1.1836 0.0039,-0.02344 0.01563,-0.04687 0.03516,-0.05859 0.01953,-0.01562 0.04297,-0.01953 0.06641,-0.01562 0.44531,0.08203 0.90625,-0.01953 1.3281,-0.38281 0.25391,-0.21875 0.23438,-0.83984 -0.11328,-1.8945 -0.01172,-0.03516 0,-0.07813 0.03516,-0.09766 0.46875,-0.30469 0.71484,-0.60156 0.77734,-0.87891 v -0.0078 l 0.36328,-1.1758 c -0.03516,-0.71875 0.04297,-1.3164 0.23047,-1.7852 -0.03906,-1.6953 -0.40234,-2.8555 -1.0352,-3.5469 -2.1445,-2.3477 -6,-4.043 -11.625,-5.0469 z m 8.3359,4.418 c 1.082,0.69531 2.1211,1.4922 3.1133,2.3906 0,0 0.0039,0 0.0039,0.0039 0.03125,0.03125 0.03516,0.08594 0.0039,0.11719 -0.03125,0.03516 -0.08594,0.03906 -0.12109,0.0039 -0.98437,-0.89453 -2.0156,-1.6875 -3.0898,-2.375 h -0.0039 c -0.57422,-0.39844 -1.7891,-1.0742 -3.6484,-2.0312 -0.0078,-0.0039 -0.01563,-0.0078 -0.01953,-0.01563 -0.02734,-0.02734 -0.03125,-0.06641 -0.01563,-0.10156 0.02344,-0.04297 0.07422,-0.05859 0.11719,-0.03516 1.8633,0.96094 3.0859,1.6406 3.6641,2.043 z m -7.3164,-3.8203 c 1.3555,0.34375 2.5039,0.67969 3.4492,1 0.19922,0.04297 1.1055,0.41016 2.7266,1.0977 0.01172,0.0039 0.01953,0.01172 0.02734,0.01953 0.02344,0.02344 0.03125,0.0625 0.01953,0.09375 -0.01953,0.04297 -0.07031,0.0625 -0.11328,0.04687 -1.6211,-0.69141 -2.5195,-1.0508 -2.6953,-1.0859 -0.0039,0 -0.0078,0 -0.01172,-0.0039 -0.94141,-0.32031 -2.0898,-0.65234 -3.4414,-1 -0.01563,-0.0039 -0.02734,-0.01172 -0.03906,-0.02344 -0.01953,-0.01953 -0.03125,-0.05078 -0.02344,-0.08203 0.01172,-0.04688 0.05859,-0.07422 0.10156,-0.0625 z m 3.4336,14.141 c -0.03516,0.02344 -0.08203,0.01953 -0.11328,-0.0078 -0.0039,-0.0039 -0.0078,-0.0078 -0.0078,-0.01172 -0.28125,-0.38281 -0.58203,-0.86719 -0.90625,-1.4531 -1.4219,-2.6484 -2.668,-5 -3.7422,-7.0547 -0.82031,-1.6562 -1.2461,-2.7031 -1.2891,-3.1367 -0.0039,-0.04687 0.03125,-0.08984 0.07813,-0.09375 0.02734,-0.0039 0.05078,0.0078 0.07031,0.02344 0.01563,0.01562 0.02344,0.03125 0.02344,0.05469 0.03906,0.41406 0.46094,1.4414 1.2695,3.0781 1.0742,2.0547 2.3242,4.4062 3.7422,7.0547 0.32031,0.58203 0.62109,1.0586 0.89453,1.4336 0.02734,0.03125 0.01953,0.08594 -0.01953,0.11328 z m 1.7773,-0.49609 c -0.03516,0.02734 -0.08594,0.02734 -0.11719,-0.0039 l -0.0039,-0.0039 c -1.0938,-1.3008 -2.6758,-3.5625 -4.75,-6.7891 -0.97656,-1.6055 -1.5195,-2.5312 -1.6289,-2.7734 -0.20312,-0.36328 -0.55078,-1.1484 -1.043,-2.3633 -0.01953,-0.04297 0.0039,-0.09375 0.04687,-0.11328 0.03125,-0.01172 0.07031,-0.0039 0.09375,0.01953 0.0078,0.0078 0.01563,0.01563 0.01953,0.02734 0.49219,1.2109 0.83594,1.9922 1.0352,2.3477 0,0.0039 0.0039,0.0039 0.0039,0.0078 0.10156,0.23047 0.64453,1.1484 1.6211,2.7578 2.0703,3.2188 3.6484,5.4727 4.7383,6.7695 0.02734,0.03125 0.01953,0.08594 -0.01563,0.11719 z m 1.8281,0.02344 c -0.04687,-0.03906 -0.09766,-0.08203 -0.14844,-0.13672 -0.17188,-0.17188 -0.38281,-0.42188 -0.63672,-0.75781 -0.46094,-0.60547 -0.80469,-1.0586 -1.0273,-1.3672 -1.3398,-1.8945 -2.0664,-2.9023 -2.1758,-3.0234 -0.0039,-0.0039 -0.0039,-0.0039 -0.0078,-0.0078 -0.21484,-0.29688 -1.0273,-1.3203 -2.4414,-3.0664 -0.30859,-0.39062 -0.55078,-0.69922 -0.71484,-0.92578 -0.76562,-1.0312 -1.457,-2.0508 -2.0781,-3.0508 -0.02344,-0.03906 -0.01172,-0.09375 0.02734,-0.11719 0.03516,-0.01953 0.07813,-0.01563 0.10547,0.01172 0.0039,0.0039 0.0078,0.01172 0.01172,0.01563 0.61719,0.99609 1.3086,2.0078 2.0703,3.0391 0.16797,0.22266 0.40234,0.52734 0.71484,0.92187 1.4102,1.7422 2.2227,2.7656 2.4414,3.0703 0.125,0.14453 0.85547,1.1562 2.1875,3.0352 0.21875,0.30469 0.5625,0.75781 1.0234,1.3633 0.25,0.32813 0.45703,0.57422 0.61719,0.73828 0.05078,0.05078 0.09766,0.09375 0.14062,0.12891 0.0039,0 0.0039,0.0039 0.0078,0.0039 0.03125,0.03125 0.03516,0.08203 0.0039,0.11328 -0.03125,0.03906 -0.08594,0.04297 -0.12109,0.01172 z m -1.3789,-3.2383 c -0.09375,-0.10938 -0.59375,-0.71484 -1.4961,-1.8125 -0.12109,-0.14844 -0.69531,-0.83594 -1.7266,-2.0586 -0.03125,-0.03516 -0.02734,-0.08984 0.01172,-0.12109 0.03516,-0.02734 0.08594,-0.02734 0.11719,0.0039 l 0.0039,0.0039 c 1.0312,1.2266 1.6055,1.9141 1.7266,2.0625 0.90234,1.0938 1.3984,1.6992 1.4922,1.8086 0.16406,0.19922 0.27734,0.34375 0.34375,0.43359 0.02734,0.03906 0.01953,0.09375 -0.01953,0.12109 -0.03516,0.02344 -0.08203,0.01953 -0.10938,-0.0078 -0.0039,-0.0039 -0.0078,-0.0078 -0.0078,-0.01172 -0.0625,-0.08594 -0.17578,-0.22656 -0.33594,-0.42578 z m 3.7344,2.8516 c -0.03516,0.03125 -0.08594,0.02734 -0.11719,-0.0039 l -0.0039,-0.0039 c -0.21484,-0.24219 -0.39453,-0.45703 -0.53906,-0.64453 -0.98438,-1.3242 -2.1914,-2.875 -3.6211,-4.6562 -0.42969,-0.54688 -0.93359,-1.1602 -1.5078,-1.8359 -1.1484,-1.2969 -1.9492,-2.1797 -2.4023,-2.6523 -0.42969,-0.45312 -0.75,-0.78906 -0.96094,-1 -0.41797,-0.40625 -0.75781,-0.74219 -1.0195,-1.0039 -0.08594,-0.08594 -0.16406,-0.16406 -0.23437,-0.23438 -0.0078,-0.0078 -0.01563,-0.01563 -0.02734,-0.02734 -0.10156,-0.10156 -0.30859,-0.32031 -0.61719,-0.66016 -0.03125,-0.03516 -0.03125,-0.08984 0.0039,-0.12109 0.03516,-0.03125 0.08594,-0.03125 0.11719,0.0039 l 0.0039,0.0039 c 0.30859,0.33594 0.51172,0.55469 0.60938,0.65234 0.01172,0.01172 0.01953,0.01953 0.02734,0.02734 0.07031,0.07031 0.14844,0.14844 0.23438,0.23437 0.26172,0.26172 0.60156,0.59375 1.0195,1 0.21094,0.21484 0.53516,0.54688 0.96484,1.0039 0.45312,0.47266 1.2578,1.3594 2.4062,2.6562 0.57812,0.67578 1.082,1.293 1.5156,1.8438 1.4297,1.7852 2.6367,3.3359 3.625,4.6602 0.14062,0.18359 0.31641,0.39453 0.53125,0.63281 0.03125,0.03906 0.02734,0.09375 -0.0078,0.125 z m -5.918,-8.5547 c 0.03125,-0.03516 0.08594,-0.03906 0.12109,-0.0078 0.62109,0.53516 1.1797,1.0508 1.6836,1.5508 0.03906,0.03906 0.08203,0.08203 0.125,0.125 0.39453,0.39453 0.86719,0.89844 1.4219,1.5156 0.37891,0.42188 0.72266,0.82422 1.0234,1.2148 0.07422,0.08203 0.53125,0.70312 1.375,1.8633 0.02734,0.03906 0.01953,0.09375 -0.01953,0.12109 -0.03516,0.02344 -0.08203,0.01953 -0.10938,-0.0078 -0.0039,-0.0039 -0.0078,-0.0078 -0.0078,-0.01172 -0.85547,-1.1797 -1.3086,-1.7969 -1.3633,-1.8516 -0.0039,-0.0039 -0.0039,-0.0039 -0.0039,-0.0078 -0.30078,-0.38672 -0.64062,-0.78906 -1.0195,-1.207 -0.55078,-0.61328 -1.0234,-1.1172 -1.4141,-1.5078 -0.04297,-0.04297 -0.08203,-0.08203 -0.125,-0.12109 -0.5,-0.49609 -1.0586,-1.0078 -1.6758,-1.543 l -0.0039,-0.0039 c -0.03516,-0.03906 -0.03906,-0.08984 -0.0078,-0.12109 z m 7.25,3.9102 c 0.03516,0.03516 0.03125,0.08984 0,0.12109 -0.03516,0.03125 -0.08594,0.03125 -0.12109,0 l -0.09375,-0.09375 c -1.0391,-1.0391 -2.3359,-2.1133 -3.8867,-3.2148 -0.76562,-0.54688 -1.8047,-1.2617 -3.1211,-2.1367 l -4.5391,-2.8945 c -0.0039,-0.0039 -0.01172,-0.0078 -0.01563,-0.01172 -0.02734,-0.02734 -0.03516,-0.07031 -0.01172,-0.10547 0.02734,-0.03906 0.07813,-0.05078 0.11719,-0.02734 l 4.5391,2.8945 c 1.3203,0.87891 2.3633,1.5938 3.1289,2.1406 1.5586,1.1055 2.8594,2.1836 3.9062,3.2305 0.03516,0.03516 0.06641,0.06641 0.09766,0.09766 z"
       id="path15"
       style="fill:#ee8fa1;fill-opacity:1" />
    <path
       d="m 71.648,52.621 c 0.15625,-0.40625 0.21875,-0.69922 0.1875,-0.875 v -0.0039 c -0.02344,-0.16016 -0.07422,-0.3125 -0.16016,-0.45313 l -0.91016,-1.4141 c -0.01563,-0.02344 -0.01953,-0.05078 -0.0078,-0.07813 0.15234,-0.39062 0.14453,-0.71484 -0.02734,-0.96875 l -0.0039,-0.0039 c -0.11328,-0.19141 -0.26172,-0.375 -0.4375,-0.55469 -0.15234,-0.15234 -0.33203,-0.30469 -0.53516,-0.44531 -0.0039,-0.0039 -0.0078,-0.0039 -0.01172,-0.0078 -0.0078,-0.0078 -0.01563,-0.01953 -0.01953,-0.03516 -0.13281,-0.39453 -0.32422,-0.71875 -0.57812,-0.97266 -0.02344,-0.02344 -0.05078,-0.04687 -0.07422,-0.07031 -1.0625,-0.85938 -2.3555,-1.2305 -3.8711,-1.125 -2.6094,1.2148 -4.4609,2.0273 -5.5312,2.4258 -1.6367,0.59375 -3.043,0.94922 -4.2344,1.0938 -0.0078,0.01563 -0.01953,0.03125 -0.03906,0.03906 -0.16406,0.07422 -0.35156,0.17969 -0.55859,0.32422 -0.11719,0.08203 -0.22656,0.18359 -0.33203,0.30469 0.06641,0.10547 0.09375,0.21484 0.07813,0.33594 -0.01563,0.13281 -0.11719,0.27734 -0.26172,0.43359 0.26563,0.11719 0.38672,0.32031 0.30078,0.61328 -0.01563,0.04687 -0.03125,0.09375 -0.05469,0.14453 -0.08594,0.18359 -0.29297,0.31641 -0.57812,0.41406 v 0.0078 c 5.6641,1.0039 9.582,2.7148 11.766,5.1055 0.25391,0.27734 0.44922,0.64453 0.61328,1.0547 -0.02344,-0.02344 -0.03125,-0.05859 -0.01953,-0.08984 0.01563,-0.04297 0.06641,-0.06641 0.10938,-0.05078 0.21094,0.08203 0.51172,0.03125 0.90234,-0.15625 0.53125,-0.32422 0.93359,-0.72656 1.207,-1.207 0.01172,-0.02344 0.03516,-0.03906 0.05859,-0.04297 0.72266,-0.13672 1.1836,-0.33984 1.3867,-0.60547 0.0039,-0.0039 0.0039,-0.0078 0.0078,-0.0078 0.16797,-0.16406 0.32031,-0.49219 0.45703,-0.97656 0.0039,-0.01953 0.01563,-0.03516 0.03516,-0.04688 0.55078,-0.38672 0.90625,-0.76953 1.0664,-1.1367 v -0.0039 c 0.10547,-0.21094 0.125,-0.51953 0.05469,-0.92578 0.0078,-0.01172 0.0078,-0.02734 0.01563,-0.03906 z m -1.4844,-2.1406 c 0.01563,0.01563 0.02734,0.04297 0.02344,0.06641 -0.0039,0.04687 -0.04297,0.08203 -0.09375,0.07813 -2.8789,-0.21875 -4.4023,-0.32031 -4.5703,-0.30469 h -0.01172 l -8.9922,-0.20312 c -0.02344,0 -0.04297,-0.01172 -0.05859,-0.02344 -0.01563,-0.01563 -0.02734,-0.03906 -0.02344,-0.0625 0,-0.04687 0.03906,-0.08594 0.08594,-0.08203 l 8.9844,0.20312 c 0.19531,-0.01563 1.7305,0.08594 4.5977,0.30469 0.02344,0 0.04297,0.0078 0.05859,0.02344 z m -0.33594,-1.125 c 0.02344,0 0.04297,0.01172 0.05469,0.02344 0.01563,0.01563 0.02734,0.03906 0.02344,0.06641 -0.0039,0.04688 -0.04297,0.08203 -0.08984,0.08203 -2.4297,-0.14453 -3.707,-0.20312 -3.8359,-0.17188 -0.03125,0.0078 -0.0625,0 -0.08203,-0.02344 -0.01172,-0.01172 -0.01953,-0.02344 -0.02344,-0.03906 -0.01172,-0.04687 0.01563,-0.09375 0.0625,-0.10547 h 0.0039 c 0.14453,-0.03516 1.4414,0.01953 3.8867,0.16797 z m -8.0547,-1.7539 c 1.8828,-0.55469 2.9961,-0.84375 3.3477,-0.87109 0.86328,-0.14453 1.7422,-0.19922 2.6289,-0.16797 0.02344,0 0.04297,0.01172 0.05859,0.02344 0.01563,0.01562 0.02734,0.03906 0.02344,0.0625 0,0.04687 -0.04297,0.08594 -0.08984,0.08203 -0.87891,-0.03125 -1.7422,0.02344 -2.5977,0.16406 h -0.0078 c -0.32812,0.02344 -1.4336,0.30859 -3.3164,0.86328 -0.03125,0.0078 -0.0625,0 -0.08594,-0.02344 -0.01172,-0.01172 -0.01563,-0.02344 -0.02344,-0.03516 -0.0078,-0.03516 0.01953,-0.08594 0.0625,-0.09766 z m -6.7734,1.9648 c 0.17578,-0.14844 1.4883,-0.26172 3.9414,-0.33203 2.6992,-0.375 4.3789,-0.58203 5.0352,-0.62109 0.24219,-0.05469 2.1211,-0.11328 5.6406,-0.17578 0.02344,0 0.04687,0.0078 0.0625,0.02344 0.01562,0.01562 0.02344,0.03516 0.02344,0.05859 0,0.04687 -0.03516,0.08594 -0.08594,0.08594 -3.5547,0.0625 -5.4219,0.11719 -5.6016,0.17188 -0.0078,0 -0.01172,0.0039 -0.01953,0.0039 -0.64453,0.03906 -2.3242,0.24609 -5.0352,0.62109 h -0.0078 c -2.4023,0.06641 -3.6797,0.16406 -3.8398,0.28516 -0.01953,0.03516 -0.06641,0.05078 -0.10547,0.03516 -0.01172,-0.0039 -0.02344,-0.01172 -0.03125,-0.01953 -0.02344,-0.02344 -0.03125,-0.05859 -0.01953,-0.08984 0.01172,-0.01172 0.02344,-0.03125 0.04297,-0.04687 z m 3.0547,2.4219 -2.5508,-0.50781 c -0.01563,-0.0039 -0.03125,-0.01172 -0.04297,-0.02344 -0.01953,-0.01953 -0.03125,-0.04687 -0.02344,-0.07813 0.0078,-0.04687 0.05469,-0.07813 0.10156,-0.06641 l 2.5469,0.50781 c 1.4844,0.17188 3.125,0.42578 4.9336,0.76172 h 0.0039 l 5.2695,1.2188 c 0.01563,0.0039 0.03125,0.01172 0.04297,0.02344 0.01953,0.01953 0.03125,0.05078 0.02344,0.08203 -0.01172,0.04687 -0.05859,0.07422 -0.10156,0.0625 l -5.2773,-1.2188 c -1.8008,-0.33594 -3.4414,-0.58984 -4.918,-0.76172 h -0.0078 z m 10.262,3.9883 c -0.42578,-0.05469 -1.5547,-0.37891 -3.3867,-0.96484 -0.61328,-0.19141 -1.2617,-0.42969 -1.9375,-0.71875 -0.01172,-0.0039 -0.01953,-0.01172 -0.02734,-0.01953 -0.02344,-0.02344 -0.03125,-0.0625 -0.01953,-0.09375 0.01953,-0.04297 0.07031,-0.0625 0.11328,-0.04688 0.67188,0.28516 1.3125,0.52344 1.9219,0.71094 1.8203,0.58594 2.9375,0.90625 3.3555,0.96094 0.01953,0.0039 0.03516,0.01172 0.05078,0.02344 0.01953,0.01953 0.02734,0.04297 0.02344,0.07031 -0.0039,0.05078 -0.04687,0.08203 -0.09375,0.07812 z m 2.3047,-3.5352 c -4.1602,-0.66016 -8.2461,-1.1055 -12.258,-1.3281 -0.17188,0 -1.3008,-0.19141 -3.3789,-0.57812 -0.01953,-0.0039 -0.03125,-0.01172 -0.04687,-0.02344 -0.01953,-0.01953 -0.02734,-0.04687 -0.02344,-0.07813 0.0078,-0.04687 0.05469,-0.07813 0.10156,-0.07031 2.0938,0.39062 3.2109,0.58203 3.3398,0.57422 h 0.01563 c 4.0195,0.22656 8.1133,0.66797 12.277,1.332 0.01953,0.0039 0.03516,0.01172 0.04687,0.02344 0.01953,0.01953 0.02734,0.04687 0.02344,0.07422 -0.0078,0.05078 -0.05078,0.08203 -0.09766,0.07422 z"
       id="path16"
       style="fill:#ee8fa1;fill-opacity:1" />
  </g>
</svg>
